G04 #@! TF.GenerationSoftware,KiCad,Pcbnew,(6.0.1-0)*
G04 #@! TF.CreationDate,2022-08-05T18:56:23-07:00*
G04 #@! TF.ProjectId,kicad_port,6b696361-645f-4706-9f72-742e6b696361,rev?*
G04 #@! TF.SameCoordinates,Original*
G04 #@! TF.FileFunction,Legend,Top*
G04 #@! TF.FilePolarity,Positive*
%FSLAX46Y46*%
G04 Gerber Fmt 4.6, Leading zero omitted, Abs format (unit mm)*
G04 Created by KiCad (PCBNEW (6.0.1-0)) date 2022-08-05 18:56:23*
%MOMM*%
%LPD*%
G01*
G04 APERTURE LIST*
%ADD10C,0.150000*%
%ADD11C,0.120000*%
%ADD12R,1.800000X1.800000*%
%ADD13C,1.800000*%
%ADD14C,1.400000*%
%ADD15O,1.400000X1.400000*%
%ADD16C,8.600000*%
%ADD17O,2.000000X1.200000*%
%ADD18R,1.700000X1.700000*%
%ADD19O,1.700000X1.700000*%
%ADD20C,6.500000*%
%ADD21O,4.750000X2.250000*%
%ADD22C,1.700000*%
G04 APERTURE END LIST*
D10*
X130421904Y-131582380D02*
X130421904Y-130582380D01*
X130660000Y-130582380D01*
X130802857Y-130630000D01*
X130898095Y-130725238D01*
X130945714Y-130820476D01*
X130993333Y-131010952D01*
X130993333Y-131153809D01*
X130945714Y-131344285D01*
X130898095Y-131439523D01*
X130802857Y-131534761D01*
X130660000Y-131582380D01*
X130421904Y-131582380D01*
X131945714Y-131582380D02*
X131374285Y-131582380D01*
X131660000Y-131582380D02*
X131660000Y-130582380D01*
X131564761Y-130725238D01*
X131469523Y-130820476D01*
X131374285Y-130868095D01*
X140421904Y-131582380D02*
X140421904Y-130582380D01*
X140660000Y-130582380D01*
X140802857Y-130630000D01*
X140898095Y-130725238D01*
X140945714Y-130820476D01*
X140993333Y-131010952D01*
X140993333Y-131153809D01*
X140945714Y-131344285D01*
X140898095Y-131439523D01*
X140802857Y-131534761D01*
X140660000Y-131582380D01*
X140421904Y-131582380D01*
X141374285Y-130677619D02*
X141421904Y-130630000D01*
X141517142Y-130582380D01*
X141755238Y-130582380D01*
X141850476Y-130630000D01*
X141898095Y-130677619D01*
X141945714Y-130772857D01*
X141945714Y-130868095D01*
X141898095Y-131010952D01*
X141326666Y-131582380D01*
X141945714Y-131582380D01*
X150421904Y-131582380D02*
X150421904Y-130582380D01*
X150660000Y-130582380D01*
X150802857Y-130630000D01*
X150898095Y-130725238D01*
X150945714Y-130820476D01*
X150993333Y-131010952D01*
X150993333Y-131153809D01*
X150945714Y-131344285D01*
X150898095Y-131439523D01*
X150802857Y-131534761D01*
X150660000Y-131582380D01*
X150421904Y-131582380D01*
X151326666Y-130582380D02*
X151945714Y-130582380D01*
X151612380Y-130963333D01*
X151755238Y-130963333D01*
X151850476Y-131010952D01*
X151898095Y-131058571D01*
X151945714Y-131153809D01*
X151945714Y-131391904D01*
X151898095Y-131487142D01*
X151850476Y-131534761D01*
X151755238Y-131582380D01*
X151469523Y-131582380D01*
X151374285Y-131534761D01*
X151326666Y-131487142D01*
X160421904Y-131582380D02*
X160421904Y-130582380D01*
X160660000Y-130582380D01*
X160802857Y-130630000D01*
X160898095Y-130725238D01*
X160945714Y-130820476D01*
X160993333Y-131010952D01*
X160993333Y-131153809D01*
X160945714Y-131344285D01*
X160898095Y-131439523D01*
X160802857Y-131534761D01*
X160660000Y-131582380D01*
X160421904Y-131582380D01*
X161850476Y-130915714D02*
X161850476Y-131582380D01*
X161612380Y-130534761D02*
X161374285Y-131249047D01*
X161993333Y-131249047D01*
X134873333Y-126932380D02*
X134540000Y-126456190D01*
X134301904Y-126932380D02*
X134301904Y-125932380D01*
X134682857Y-125932380D01*
X134778095Y-125980000D01*
X134825714Y-126027619D01*
X134873333Y-126122857D01*
X134873333Y-126265714D01*
X134825714Y-126360952D01*
X134778095Y-126408571D01*
X134682857Y-126456190D01*
X134301904Y-126456190D01*
X135825714Y-126932380D02*
X135254285Y-126932380D01*
X135540000Y-126932380D02*
X135540000Y-125932380D01*
X135444761Y-126075238D01*
X135349523Y-126170476D01*
X135254285Y-126218095D01*
X144873333Y-126932380D02*
X144540000Y-126456190D01*
X144301904Y-126932380D02*
X144301904Y-125932380D01*
X144682857Y-125932380D01*
X144778095Y-125980000D01*
X144825714Y-126027619D01*
X144873333Y-126122857D01*
X144873333Y-126265714D01*
X144825714Y-126360952D01*
X144778095Y-126408571D01*
X144682857Y-126456190D01*
X144301904Y-126456190D01*
X145254285Y-126027619D02*
X145301904Y-125980000D01*
X145397142Y-125932380D01*
X145635238Y-125932380D01*
X145730476Y-125980000D01*
X145778095Y-126027619D01*
X145825714Y-126122857D01*
X145825714Y-126218095D01*
X145778095Y-126360952D01*
X145206666Y-126932380D01*
X145825714Y-126932380D01*
X154773333Y-126932380D02*
X154440000Y-126456190D01*
X154201904Y-126932380D02*
X154201904Y-125932380D01*
X154582857Y-125932380D01*
X154678095Y-125980000D01*
X154725714Y-126027619D01*
X154773333Y-126122857D01*
X154773333Y-126265714D01*
X154725714Y-126360952D01*
X154678095Y-126408571D01*
X154582857Y-126456190D01*
X154201904Y-126456190D01*
X155106666Y-125932380D02*
X155725714Y-125932380D01*
X155392380Y-126313333D01*
X155535238Y-126313333D01*
X155630476Y-126360952D01*
X155678095Y-126408571D01*
X155725714Y-126503809D01*
X155725714Y-126741904D01*
X155678095Y-126837142D01*
X155630476Y-126884761D01*
X155535238Y-126932380D01*
X155249523Y-126932380D01*
X155154285Y-126884761D01*
X155106666Y-126837142D01*
X164673333Y-127032380D02*
X164340000Y-126556190D01*
X164101904Y-127032380D02*
X164101904Y-126032380D01*
X164482857Y-126032380D01*
X164578095Y-126080000D01*
X164625714Y-126127619D01*
X164673333Y-126222857D01*
X164673333Y-126365714D01*
X164625714Y-126460952D01*
X164578095Y-126508571D01*
X164482857Y-126556190D01*
X164101904Y-126556190D01*
X165530476Y-126365714D02*
X165530476Y-127032380D01*
X165292380Y-125984761D02*
X165054285Y-126699047D01*
X165673333Y-126699047D01*
X149238095Y-101152380D02*
X149238095Y-100152380D01*
X149238095Y-100628571D02*
X149809523Y-100628571D01*
X149809523Y-101152380D02*
X149809523Y-100152380D01*
X150809523Y-101152380D02*
X150238095Y-101152380D01*
X150523809Y-101152380D02*
X150523809Y-100152380D01*
X150428571Y-100295238D01*
X150333333Y-100390476D01*
X150238095Y-100438095D01*
D11*
X133410000Y-133480000D02*
X133410000Y-133636000D01*
X133410000Y-131164000D02*
X133410000Y-131320000D01*
X133929039Y-133480000D02*
G75*
G03*
X136011130Y-133479837I1040961J1080000D01*
G01*
X136011130Y-131320163D02*
G75*
G03*
X133929039Y-131320000I-1041130J-1079837D01*
G01*
X133410000Y-133635516D02*
G75*
G03*
X136642335Y-133478608I1560000J1235517D01*
G01*
X136642335Y-131321392D02*
G75*
G03*
X133410000Y-131164484I-1672335J-1078609D01*
G01*
X143410000Y-131164000D02*
X143410000Y-131320000D01*
X143410000Y-133480000D02*
X143410000Y-133636000D01*
X143929039Y-133480000D02*
G75*
G03*
X146011130Y-133479837I1040961J1080000D01*
G01*
X143410000Y-133635516D02*
G75*
G03*
X146642335Y-133478608I1560000J1235517D01*
G01*
X146011130Y-131320163D02*
G75*
G03*
X143929039Y-131320000I-1041130J-1079837D01*
G01*
X146642335Y-131321392D02*
G75*
G03*
X143410000Y-131164484I-1672335J-1078609D01*
G01*
X153410000Y-133480000D02*
X153410000Y-133636000D01*
X153410000Y-131164000D02*
X153410000Y-131320000D01*
X156642335Y-131321392D02*
G75*
G03*
X153410000Y-131164484I-1672335J-1078609D01*
G01*
X153410000Y-133635516D02*
G75*
G03*
X156642335Y-133478608I1560000J1235517D01*
G01*
X156011130Y-131320163D02*
G75*
G03*
X153929039Y-131320000I-1041130J-1079837D01*
G01*
X153929039Y-133480000D02*
G75*
G03*
X156011130Y-133479837I1040961J1080000D01*
G01*
X163410000Y-131164000D02*
X163410000Y-131320000D01*
X163410000Y-133480000D02*
X163410000Y-133636000D01*
X163410000Y-133635516D02*
G75*
G03*
X166642335Y-133478608I1560000J1235517D01*
G01*
X166011130Y-131320163D02*
G75*
G03*
X163929039Y-131320000I-1041130J-1079837D01*
G01*
X163929039Y-133480000D02*
G75*
G03*
X166011130Y-133479837I1040961J1080000D01*
G01*
X166642335Y-131321392D02*
G75*
G03*
X163410000Y-131164484I-1672335J-1078609D01*
G01*
X133120000Y-129320000D02*
X136960000Y-129320000D01*
X133120000Y-127480000D02*
X136960000Y-127480000D01*
X143120000Y-129320000D02*
X146960000Y-129320000D01*
X143120000Y-127480000D02*
X146960000Y-127480000D01*
X153020000Y-127480000D02*
X156860000Y-127480000D01*
X153020000Y-129320000D02*
X156860000Y-129320000D01*
X162920000Y-127580000D02*
X166760000Y-127580000D01*
X162920000Y-129420000D02*
X166760000Y-129420000D01*
%LPC*%
D12*
X133700000Y-132400000D03*
D13*
X136240000Y-132400000D03*
D12*
X143700000Y-132400000D03*
D13*
X146240000Y-132400000D03*
D12*
X153700000Y-132400000D03*
D13*
X156240000Y-132400000D03*
D12*
X163700000Y-132400000D03*
D13*
X166240000Y-132400000D03*
D14*
X132500000Y-128400000D03*
D15*
X137580000Y-128400000D03*
D14*
X142500000Y-128400000D03*
D15*
X147580000Y-128400000D03*
D14*
X152400000Y-128400000D03*
D15*
X157480000Y-128400000D03*
D14*
X162300000Y-128500000D03*
D15*
X167380000Y-128500000D03*
D16*
X150000000Y-106000000D03*
D17*
X192900000Y-55000000D03*
X190900000Y-56250000D03*
X192900000Y-57500000D03*
X190900000Y-58750000D03*
X192900000Y-60000000D03*
X190900000Y-61250000D03*
X192900000Y-62500000D03*
X190900000Y-63750000D03*
X192900000Y-65000000D03*
X190900000Y-66250000D03*
X192900000Y-67500000D03*
X190900000Y-68750000D03*
X192900000Y-70000000D03*
X107000000Y-70000000D03*
X109000000Y-68750000D03*
X107000000Y-67500000D03*
X109000000Y-66250000D03*
X107000000Y-65000000D03*
X109000000Y-63750000D03*
X107000000Y-62500000D03*
X109000000Y-61250000D03*
X107000000Y-60000000D03*
X109000000Y-58750000D03*
X107000000Y-57500000D03*
X109000000Y-56250000D03*
X107000000Y-55000000D03*
X198300000Y-103000000D03*
X193300000Y-104250000D03*
X198300000Y-105500000D03*
X193300000Y-106750000D03*
X198300000Y-108000000D03*
X193300000Y-109250000D03*
X198300000Y-110500000D03*
X193300000Y-111750000D03*
X198300000Y-113000000D03*
X193300000Y-114250000D03*
X198300000Y-115500000D03*
X193300000Y-116750000D03*
X198300000Y-118000000D03*
X101800000Y-118000000D03*
X106800000Y-116750000D03*
X101800000Y-115500000D03*
X106800000Y-114250000D03*
X101800000Y-113000000D03*
X106800000Y-111750000D03*
X101800000Y-110500000D03*
X106800000Y-109250000D03*
X101800000Y-108000000D03*
X106800000Y-106750000D03*
X101800000Y-105500000D03*
X106800000Y-104250000D03*
X101800000Y-103000000D03*
D18*
X173800000Y-129000000D03*
D19*
X176340000Y-129000000D03*
X178880000Y-129000000D03*
X181420000Y-129000000D03*
X183960000Y-129000000D03*
X186500000Y-129000000D03*
X189040000Y-129000000D03*
X191580000Y-129000000D03*
X194120000Y-129000000D03*
X196660000Y-129000000D03*
D18*
X126200000Y-129000000D03*
D19*
X123660000Y-129000000D03*
X121120000Y-129000000D03*
X118580000Y-129000000D03*
X116040000Y-129000000D03*
X113500000Y-129000000D03*
X110960000Y-129000000D03*
X108420000Y-129000000D03*
X105880000Y-129000000D03*
X103340000Y-129000000D03*
D20*
X150000000Y-74500000D03*
D21*
X109700000Y-97600000D03*
X190300000Y-97600000D03*
D18*
X170630000Y-98425000D03*
D22*
X168090000Y-98425000D03*
X165550000Y-98425000D03*
X163010000Y-98425000D03*
X160470000Y-98425000D03*
X157930000Y-98425000D03*
X155390000Y-98425000D03*
X152850000Y-98425000D03*
X150310000Y-98425000D03*
X147770000Y-98425000D03*
X145230000Y-98425000D03*
X142690000Y-98425000D03*
X140150000Y-98425000D03*
X137610000Y-98425000D03*
X135070000Y-98425000D03*
X132530000Y-98425000D03*
X129990000Y-98425000D03*
X127450000Y-98425000D03*
X124910000Y-98425000D03*
X122370000Y-98425000D03*
X122370000Y-83185000D03*
X124910000Y-83185000D03*
X127450000Y-83185000D03*
X129990000Y-83185000D03*
X132530000Y-83185000D03*
X135070000Y-83185000D03*
X137610000Y-83185000D03*
X140150000Y-83185000D03*
X142690000Y-83185000D03*
X145230000Y-83185000D03*
X147770000Y-83185000D03*
X150310000Y-83185000D03*
X152850000Y-83185000D03*
X155390000Y-83185000D03*
X157930000Y-83185000D03*
X160470000Y-83185000D03*
X163010000Y-83185000D03*
X165550000Y-83185000D03*
X168090000Y-83185000D03*
X170630000Y-83185000D03*
X126181000Y-86993000D03*
X126181000Y-89533000D03*
X126181000Y-92073000D03*
X126181000Y-94613000D03*
M02*
