G04 #@! TF.GenerationSoftware,KiCad,Pcbnew,(6.0.1-0)*
G04 #@! TF.CreationDate,2022-06-04T20:13:45-07:00*
G04 #@! TF.ProjectId,kicad_port,6b696361-645f-4706-9f72-742e6b696361,rev?*
G04 #@! TF.SameCoordinates,Original*
G04 #@! TF.FileFunction,Soldermask,Bot*
G04 #@! TF.FilePolarity,Negative*
%FSLAX46Y46*%
G04 Gerber Fmt 4.6, Leading zero omitted, Abs format (unit mm)*
G04 Created by KiCad (PCBNEW (6.0.1-0)) date 2022-06-04 20:13:45*
%MOMM*%
%LPD*%
G01*
G04 APERTURE LIST*
%ADD10C,8.600000*%
%ADD11C,1.300000*%
%ADD12C,1.600000*%
%ADD13R,1.300000X1.300000*%
%ADD14R,1.600000X1.600000*%
%ADD15O,2.000000X1.200000*%
%ADD16O,4.750000X2.250000*%
%ADD17C,1.800000*%
%ADD18R,1.800000X1.800000*%
%ADD19O,1.400000X1.400000*%
%ADD20C,1.400000*%
%ADD21O,1.700000X1.700000*%
%ADD22R,1.700000X1.700000*%
%ADD23C,6.500000*%
G04 APERTURE END LIST*
D10*
X150000000Y-106000000D03*
D11*
X173980000Y-89130000D03*
X173980000Y-91670000D03*
D12*
X128990000Y-85320000D03*
X128990000Y-87860000D03*
X128990000Y-90400000D03*
X128990000Y-92940000D03*
X128990000Y-95480000D03*
D11*
X161740000Y-89218400D03*
X159740000Y-89218400D03*
X159740000Y-87218400D03*
X161740000Y-87218400D03*
X159740000Y-85218400D03*
D13*
X161740000Y-85218400D03*
D12*
X134070000Y-98020000D03*
X131530000Y-98020000D03*
X128990000Y-98020000D03*
X126450000Y-98020000D03*
X136610000Y-98020000D03*
X139150000Y-98020000D03*
X141690000Y-98020000D03*
X123910000Y-98020000D03*
X121370000Y-98020000D03*
X118830000Y-98020000D03*
X116290000Y-98020000D03*
X116290000Y-82780000D03*
X118830000Y-82780000D03*
X121370000Y-82780000D03*
X123910000Y-82780000D03*
X126450000Y-82780000D03*
X128990000Y-82780000D03*
X131530000Y-82780000D03*
X134070000Y-82780000D03*
X136610000Y-82780000D03*
X139150000Y-82780000D03*
X144230000Y-98020000D03*
X146770000Y-98020000D03*
X149310000Y-98020000D03*
X151850000Y-98020000D03*
X154390000Y-98020000D03*
X156930000Y-98020000D03*
X159470000Y-98020000D03*
X162010000Y-98020000D03*
X164550000Y-98020000D03*
X167090000Y-98020000D03*
X169630000Y-98020000D03*
X172170000Y-98020000D03*
D14*
X174710000Y-98020000D03*
D12*
X141690000Y-82780000D03*
X144230000Y-82780000D03*
X146770000Y-82780000D03*
X149310000Y-82780000D03*
X151850000Y-82780000D03*
X154390000Y-82780000D03*
X156930000Y-82780000D03*
X159470000Y-82780000D03*
X162010000Y-82780000D03*
X164550000Y-82780000D03*
X167090000Y-82780000D03*
X169630000Y-82780000D03*
X172170000Y-82780000D03*
X174710000Y-82780000D03*
D14*
X168410800Y-94969200D03*
D12*
X165870800Y-94969200D03*
X163330800Y-94969200D03*
X160790800Y-94969200D03*
X158250800Y-94969200D03*
X172170000Y-85320000D03*
D15*
X101800000Y-103000000D03*
X106800000Y-104250000D03*
X101800000Y-105500000D03*
X106800000Y-106750000D03*
X101800000Y-108000000D03*
X106800000Y-109250000D03*
X101800000Y-110500000D03*
X106800000Y-111750000D03*
X101800000Y-113000000D03*
X106800000Y-114250000D03*
X101800000Y-115500000D03*
X106800000Y-116750000D03*
X101800000Y-118000000D03*
X198300000Y-118000000D03*
X193300000Y-116750000D03*
X198300000Y-115500000D03*
X193300000Y-114250000D03*
X198300000Y-113000000D03*
X193300000Y-111750000D03*
X198300000Y-110500000D03*
X193300000Y-109250000D03*
X198300000Y-108000000D03*
X193300000Y-106750000D03*
X198300000Y-105500000D03*
X193300000Y-104250000D03*
X198300000Y-103000000D03*
D16*
X190300000Y-97600000D03*
D15*
X192900000Y-70000000D03*
X190900000Y-68750000D03*
X192900000Y-67500000D03*
X190900000Y-66250000D03*
X192900000Y-65000000D03*
X190900000Y-63750000D03*
X192900000Y-62500000D03*
X190900000Y-61250000D03*
X192900000Y-60000000D03*
X190900000Y-58750000D03*
X192900000Y-57500000D03*
X190900000Y-56250000D03*
X192900000Y-55000000D03*
X107000000Y-55000000D03*
X109000000Y-56250000D03*
X107000000Y-57500000D03*
X109000000Y-58750000D03*
X107000000Y-60000000D03*
X109000000Y-61250000D03*
X107000000Y-62500000D03*
X109000000Y-63750000D03*
X107000000Y-65000000D03*
X109000000Y-66250000D03*
X107000000Y-67500000D03*
X109000000Y-68750000D03*
X107000000Y-70000000D03*
D17*
X136240000Y-132400000D03*
D18*
X133700000Y-132400000D03*
D17*
X146240000Y-132400000D03*
D18*
X143700000Y-132400000D03*
D17*
X156240000Y-132400000D03*
D18*
X153700000Y-132400000D03*
D17*
X166240000Y-132400000D03*
D18*
X163700000Y-132400000D03*
D19*
X137580000Y-128400000D03*
D20*
X132500000Y-128400000D03*
D19*
X147580000Y-128400000D03*
D20*
X142500000Y-128400000D03*
D19*
X157480000Y-128400000D03*
D20*
X152400000Y-128400000D03*
D19*
X167380000Y-128500000D03*
D20*
X162300000Y-128500000D03*
D16*
X109700000Y-97600000D03*
D21*
X196660000Y-129000000D03*
X194120000Y-129000000D03*
X191580000Y-129000000D03*
X189040000Y-129000000D03*
X186500000Y-129000000D03*
X183960000Y-129000000D03*
X181420000Y-129000000D03*
X178880000Y-129000000D03*
X176340000Y-129000000D03*
D22*
X173800000Y-129000000D03*
X126200000Y-129000000D03*
D21*
X123660000Y-129000000D03*
X121120000Y-129000000D03*
X118580000Y-129000000D03*
X116040000Y-129000000D03*
X113500000Y-129000000D03*
X110960000Y-129000000D03*
X108420000Y-129000000D03*
X105880000Y-129000000D03*
X103340000Y-129000000D03*
D23*
X150000000Y-74500000D03*
M02*
