%FSLAX45Y45*%
G04 Gerber Fmt 4.5, Leading zero omitted, Abs format (unit mm)*
G04 Created by KiCad (PCBNEW (6.0.1-0)) date 2022-06-04 20:15:55*
%MOMM*%
%LPD*%
G01*
G04 APERTURE LIST*
%TA.AperFunction,Profile*%
%ADD10C,0.200000*%
%TD*%
%ADD11C,0.200000*%
%ADD12C,0.040000*%
%ADD13C,0.070000*%
%ADD14C,0.080000*%
%ADD15C,0.090000*%
%ADD16C,0.100000*%
%ADD17C,0.110000*%
%ADD18C,0.430000*%
G04 APERTURE END LIST*
D10*
X10000000Y-5000000D02*
X10000000Y-13600000D01*
X20000000Y-5000000D02*
X10000000Y-5000000D01*
X20000000Y-13600000D02*
X20000000Y-5000000D01*
X10000000Y-13600000D02*
X20000000Y-13600000D01*
D11*
D12*
X10280000Y-10650000D02*
X10320000Y-10690000D01*
X10320000Y-10650000D02*
X10280000Y-10690000D01*
X10340000Y-10460000D02*
X10380000Y-10500000D01*
X10380000Y-10460000D02*
X10340000Y-10500000D01*
X10560000Y-10250000D02*
X10600000Y-10290000D01*
X10600000Y-10250000D02*
X10560000Y-10290000D01*
X10735000Y-7175000D02*
X10775000Y-7215000D01*
X10775000Y-7175000D02*
X10735000Y-7215000D01*
X10780000Y-11030000D02*
X10820000Y-11070000D01*
X10820000Y-11030000D02*
X10780000Y-11070000D01*
X11050000Y-5600000D02*
X11090000Y-5640000D01*
X11090000Y-5600000D02*
X11050000Y-5640000D01*
X11190000Y-10862306D02*
X11230000Y-10902306D01*
X11230000Y-10862306D02*
X11190000Y-10902306D01*
X11230000Y-7680000D02*
X11270000Y-7720000D01*
X11270000Y-7680000D02*
X11230000Y-7720000D01*
X11280000Y-5230000D02*
X11320000Y-5270000D01*
X11320000Y-5230000D02*
X11280000Y-5270000D01*
X11330000Y-11680000D02*
X11370000Y-11720000D01*
X11370000Y-11680000D02*
X11330000Y-11720000D01*
X11330000Y-12430000D02*
X11370000Y-12470000D01*
X11370000Y-12430000D02*
X11330000Y-12470000D01*
X12080000Y-10280000D02*
X12120000Y-10320000D01*
X12120000Y-10280000D02*
X12080000Y-10320000D01*
X13600000Y-10980000D02*
X13640000Y-11020000D01*
X13640000Y-10980000D02*
X13600000Y-11020000D01*
X13780000Y-8480000D02*
X13820000Y-8520000D01*
X13820000Y-8480000D02*
X13780000Y-8520000D01*
X14040000Y-11790000D02*
X14080000Y-11830000D01*
X14080000Y-11790000D02*
X14040000Y-11830000D01*
X14470000Y-10130000D02*
X14510000Y-10170000D01*
X14510000Y-10130000D02*
X14470000Y-10170000D01*
X14540050Y-11110000D02*
X14580050Y-11150000D01*
X14580050Y-11110000D02*
X14540050Y-11150000D01*
X14640000Y-11110000D02*
X14680000Y-11150000D01*
X14680000Y-11110000D02*
X14640000Y-11150000D01*
X14750000Y-11110000D02*
X14790000Y-11150000D01*
X14790000Y-11110000D02*
X14750000Y-11150000D01*
X16990000Y-10620000D02*
X17030000Y-10660000D01*
X17030000Y-10620000D02*
X16990000Y-10660000D01*
X18580000Y-5780000D02*
X18620000Y-5820000D01*
X18620000Y-5780000D02*
X18580000Y-5820000D01*
X18750000Y-11070000D02*
X18790000Y-11110000D01*
X18790000Y-11070000D02*
X18750000Y-11110000D01*
X18922598Y-11490000D02*
X18962598Y-11530000D01*
X18962598Y-11490000D02*
X18922598Y-11530000D01*
X18983770Y-11706230D02*
X19023770Y-11746230D01*
X19023770Y-11706230D02*
X18983770Y-11746230D01*
X19418770Y-12298770D02*
X19458770Y-12338770D01*
X19458770Y-12298770D02*
X19418770Y-12338770D01*
X19440000Y-10780000D02*
X19480000Y-10820000D01*
X19480000Y-10780000D02*
X19440000Y-10820000D01*
X19440000Y-11030000D02*
X19480000Y-11070000D01*
X19480000Y-11030000D02*
X19440000Y-11070000D01*
X19450000Y-6190000D02*
X19490000Y-6230000D01*
X19490000Y-6190000D02*
X19450000Y-6230000D01*
X19460000Y-6680000D02*
X19500000Y-6720000D01*
X19500000Y-6680000D02*
X19460000Y-6720000D01*
X19520000Y-12300000D02*
X19560000Y-12340000D01*
X19560000Y-12300000D02*
X19520000Y-12340000D01*
X19560000Y-6200000D02*
X19600000Y-6240000D01*
X19600000Y-6200000D02*
X19560000Y-6240000D01*
X19592450Y-11270000D02*
X19632450Y-11310000D01*
X19632450Y-11270000D02*
X19592450Y-11310000D01*
X19592450Y-12030000D02*
X19632450Y-12070000D01*
X19632450Y-12030000D02*
X19592450Y-12070000D01*
D13*
X13285000Y-12840000D02*
G75*
G03*
X13285000Y-12840000I-35000J0D01*
G01*
X13793000Y-12840000D02*
G75*
G03*
X13793000Y-12840000I-35000J0D01*
G01*
X14285000Y-12840000D02*
G75*
G03*
X14285000Y-12840000I-35000J0D01*
G01*
X14793000Y-12840000D02*
G75*
G03*
X14793000Y-12840000I-35000J0D01*
G01*
X15275000Y-12840000D02*
G75*
G03*
X15275000Y-12840000I-35000J0D01*
G01*
X15783000Y-12840000D02*
G75*
G03*
X15783000Y-12840000I-35000J0D01*
G01*
X16265000Y-12850000D02*
G75*
G03*
X16265000Y-12850000I-35000J0D01*
G01*
X16773000Y-12850000D02*
G75*
G03*
X16773000Y-12850000I-35000J0D01*
G01*
D14*
X10180000Y-10260000D02*
X10180000Y-10340000D01*
X10140000Y-10300000D02*
X10220000Y-10300000D01*
X10180000Y-10510000D02*
X10180000Y-10590000D01*
X10140000Y-10550000D02*
X10220000Y-10550000D01*
X10180000Y-10760000D02*
X10180000Y-10840000D01*
X10140000Y-10800000D02*
X10220000Y-10800000D01*
X10180000Y-11010000D02*
X10180000Y-11090000D01*
X10140000Y-11050000D02*
X10220000Y-11050000D01*
X10180000Y-11260000D02*
X10180000Y-11340000D01*
X10140000Y-11300000D02*
X10220000Y-11300000D01*
X10180000Y-11510000D02*
X10180000Y-11590000D01*
X10140000Y-11550000D02*
X10220000Y-11550000D01*
X10180000Y-11760000D02*
X10180000Y-11840000D01*
X10140000Y-11800000D02*
X10220000Y-11800000D01*
X10680000Y-10385000D02*
X10680000Y-10465000D01*
X10640000Y-10425000D02*
X10720000Y-10425000D01*
X10680000Y-10635000D02*
X10680000Y-10715000D01*
X10640000Y-10675000D02*
X10720000Y-10675000D01*
X10680000Y-10885000D02*
X10680000Y-10965000D01*
X10640000Y-10925000D02*
X10720000Y-10925000D01*
X10680000Y-11135000D02*
X10680000Y-11215000D01*
X10640000Y-11175000D02*
X10720000Y-11175000D01*
X10680000Y-11385000D02*
X10680000Y-11465000D01*
X10640000Y-11425000D02*
X10720000Y-11425000D01*
X10680000Y-11635000D02*
X10680000Y-11715000D01*
X10640000Y-11675000D02*
X10720000Y-11675000D01*
X10700000Y-5460000D02*
X10700000Y-5540000D01*
X10660000Y-5500000D02*
X10740000Y-5500000D01*
X10700000Y-5710000D02*
X10700000Y-5790000D01*
X10660000Y-5750000D02*
X10740000Y-5750000D01*
X10700000Y-5960000D02*
X10700000Y-6040000D01*
X10660000Y-6000000D02*
X10740000Y-6000000D01*
X10700000Y-6210000D02*
X10700000Y-6290000D01*
X10660000Y-6250000D02*
X10740000Y-6250000D01*
X10700000Y-6460000D02*
X10700000Y-6540000D01*
X10660000Y-6500000D02*
X10740000Y-6500000D01*
X10700000Y-6710000D02*
X10700000Y-6790000D01*
X10660000Y-6750000D02*
X10740000Y-6750000D01*
X10700000Y-6960000D02*
X10700000Y-7040000D01*
X10660000Y-7000000D02*
X10740000Y-7000000D01*
X10900000Y-5585000D02*
X10900000Y-5665000D01*
X10860000Y-5625000D02*
X10940000Y-5625000D01*
X10900000Y-5835000D02*
X10900000Y-5915000D01*
X10860000Y-5875000D02*
X10940000Y-5875000D01*
X10900000Y-6085000D02*
X10900000Y-6165000D01*
X10860000Y-6125000D02*
X10940000Y-6125000D01*
X10900000Y-6335000D02*
X10900000Y-6415000D01*
X10860000Y-6375000D02*
X10940000Y-6375000D01*
X10900000Y-6585000D02*
X10900000Y-6665000D01*
X10860000Y-6625000D02*
X10940000Y-6625000D01*
X10900000Y-6835000D02*
X10900000Y-6915000D01*
X10860000Y-6875000D02*
X10940000Y-6875000D01*
X15974000Y-8481840D02*
X15974000Y-8561840D01*
X15934000Y-8521840D02*
X16014000Y-8521840D01*
X15974000Y-8681840D02*
X15974000Y-8761840D01*
X15934000Y-8721840D02*
X16014000Y-8721840D01*
X15974000Y-8881840D02*
X15974000Y-8961840D01*
X15934000Y-8921840D02*
X16014000Y-8921840D01*
X16174000Y-8481840D02*
X16174000Y-8561840D01*
X16134000Y-8521840D02*
X16214000Y-8521840D01*
X16174000Y-8681840D02*
X16174000Y-8761840D01*
X16134000Y-8721840D02*
X16214000Y-8721840D01*
X16174000Y-8881840D02*
X16174000Y-8961840D01*
X16134000Y-8921840D02*
X16214000Y-8921840D01*
X17398000Y-8873000D02*
X17398000Y-8953000D01*
X17358000Y-8913000D02*
X17438000Y-8913000D01*
X17398000Y-9127000D02*
X17398000Y-9207000D01*
X17358000Y-9167000D02*
X17438000Y-9167000D01*
X19090000Y-5585000D02*
X19090000Y-5665000D01*
X19050000Y-5625000D02*
X19130000Y-5625000D01*
X19090000Y-5835000D02*
X19090000Y-5915000D01*
X19050000Y-5875000D02*
X19130000Y-5875000D01*
X19090000Y-6085000D02*
X19090000Y-6165000D01*
X19050000Y-6125000D02*
X19130000Y-6125000D01*
X19090000Y-6335000D02*
X19090000Y-6415000D01*
X19050000Y-6375000D02*
X19130000Y-6375000D01*
X19090000Y-6585000D02*
X19090000Y-6665000D01*
X19050000Y-6625000D02*
X19130000Y-6625000D01*
X19090000Y-6835000D02*
X19090000Y-6915000D01*
X19050000Y-6875000D02*
X19130000Y-6875000D01*
X19290000Y-5460000D02*
X19290000Y-5540000D01*
X19250000Y-5500000D02*
X19330000Y-5500000D01*
X19290000Y-5710000D02*
X19290000Y-5790000D01*
X19250000Y-5750000D02*
X19330000Y-5750000D01*
X19290000Y-5960000D02*
X19290000Y-6040000D01*
X19250000Y-6000000D02*
X19330000Y-6000000D01*
X19290000Y-6210000D02*
X19290000Y-6290000D01*
X19250000Y-6250000D02*
X19330000Y-6250000D01*
X19290000Y-6460000D02*
X19290000Y-6540000D01*
X19250000Y-6500000D02*
X19330000Y-6500000D01*
X19290000Y-6710000D02*
X19290000Y-6790000D01*
X19250000Y-6750000D02*
X19330000Y-6750000D01*
X19290000Y-6960000D02*
X19290000Y-7040000D01*
X19250000Y-7000000D02*
X19330000Y-7000000D01*
X19330000Y-10385000D02*
X19330000Y-10465000D01*
X19290000Y-10425000D02*
X19370000Y-10425000D01*
X19330000Y-10635000D02*
X19330000Y-10715000D01*
X19290000Y-10675000D02*
X19370000Y-10675000D01*
X19330000Y-10885000D02*
X19330000Y-10965000D01*
X19290000Y-10925000D02*
X19370000Y-10925000D01*
X19330000Y-11135000D02*
X19330000Y-11215000D01*
X19290000Y-11175000D02*
X19370000Y-11175000D01*
X19330000Y-11385000D02*
X19330000Y-11465000D01*
X19290000Y-11425000D02*
X19370000Y-11425000D01*
X19330000Y-11635000D02*
X19330000Y-11715000D01*
X19290000Y-11675000D02*
X19370000Y-11675000D01*
X19830000Y-10260000D02*
X19830000Y-10340000D01*
X19790000Y-10300000D02*
X19870000Y-10300000D01*
X19830000Y-10510000D02*
X19830000Y-10590000D01*
X19790000Y-10550000D02*
X19870000Y-10550000D01*
X19830000Y-10760000D02*
X19830000Y-10840000D01*
X19790000Y-10800000D02*
X19870000Y-10800000D01*
X19830000Y-11010000D02*
X19830000Y-11090000D01*
X19790000Y-11050000D02*
X19870000Y-11050000D01*
X19830000Y-11260000D02*
X19830000Y-11340000D01*
X19790000Y-11300000D02*
X19870000Y-11300000D01*
X19830000Y-11510000D02*
X19830000Y-11590000D01*
X19790000Y-11550000D02*
X19870000Y-11550000D01*
X19830000Y-11760000D02*
X19830000Y-11840000D01*
X19790000Y-11800000D02*
X19870000Y-11800000D01*
D15*
X13401820Y-13271820D02*
X13401820Y-13208180D01*
X13338180Y-13208180D01*
X13338180Y-13271820D01*
X13401820Y-13271820D01*
X13655820Y-13271820D02*
X13655820Y-13208180D01*
X13592180Y-13208180D01*
X13592180Y-13271820D01*
X13655820Y-13271820D01*
X14401820Y-13271820D02*
X14401820Y-13208180D01*
X14338180Y-13208180D01*
X14338180Y-13271820D01*
X14401820Y-13271820D01*
X14655820Y-13271820D02*
X14655820Y-13208180D01*
X14592180Y-13208180D01*
X14592180Y-13271820D01*
X14655820Y-13271820D01*
X15401820Y-13271820D02*
X15401820Y-13208180D01*
X15338180Y-13208180D01*
X15338180Y-13271820D01*
X15401820Y-13271820D01*
X15655820Y-13271820D02*
X15655820Y-13208180D01*
X15592180Y-13208180D01*
X15592180Y-13271820D01*
X15655820Y-13271820D01*
X16401820Y-13271820D02*
X16401820Y-13208180D01*
X16338180Y-13208180D01*
X16338180Y-13271820D01*
X16401820Y-13271820D01*
X16655820Y-13271820D02*
X16655820Y-13208180D01*
X16592180Y-13208180D01*
X16592180Y-13271820D01*
X16655820Y-13271820D01*
D16*
X10334000Y-12950000D02*
X10384000Y-12900000D01*
X10334000Y-12850000D01*
X10284000Y-12900000D01*
X10334000Y-12950000D01*
X10588000Y-12950000D02*
X10638000Y-12900000D01*
X10588000Y-12850000D01*
X10538000Y-12900000D01*
X10588000Y-12950000D01*
X10842000Y-12950000D02*
X10892000Y-12900000D01*
X10842000Y-12850000D01*
X10792000Y-12900000D01*
X10842000Y-12950000D01*
X11096000Y-12950000D02*
X11146000Y-12900000D01*
X11096000Y-12850000D01*
X11046000Y-12900000D01*
X11096000Y-12950000D01*
X11350000Y-12950000D02*
X11400000Y-12900000D01*
X11350000Y-12850000D01*
X11300000Y-12900000D01*
X11350000Y-12950000D01*
X11604000Y-12950000D02*
X11654000Y-12900000D01*
X11604000Y-12850000D01*
X11554000Y-12900000D01*
X11604000Y-12950000D01*
X11858000Y-12950000D02*
X11908000Y-12900000D01*
X11858000Y-12850000D01*
X11808000Y-12900000D01*
X11858000Y-12950000D01*
X12112000Y-12950000D02*
X12162000Y-12900000D01*
X12112000Y-12850000D01*
X12062000Y-12900000D01*
X12112000Y-12950000D01*
X12366000Y-12950000D02*
X12416000Y-12900000D01*
X12366000Y-12850000D01*
X12316000Y-12900000D01*
X12366000Y-12950000D01*
X12620000Y-12950000D02*
X12670000Y-12900000D01*
X12620000Y-12850000D01*
X12570000Y-12900000D01*
X12620000Y-12950000D01*
X17380000Y-12950000D02*
X17430000Y-12900000D01*
X17380000Y-12850000D01*
X17330000Y-12900000D01*
X17380000Y-12950000D01*
X17634000Y-12950000D02*
X17684000Y-12900000D01*
X17634000Y-12850000D01*
X17584000Y-12900000D01*
X17634000Y-12950000D01*
X17888000Y-12950000D02*
X17938000Y-12900000D01*
X17888000Y-12850000D01*
X17838000Y-12900000D01*
X17888000Y-12950000D01*
X18142000Y-12950000D02*
X18192000Y-12900000D01*
X18142000Y-12850000D01*
X18092000Y-12900000D01*
X18142000Y-12950000D01*
X18396000Y-12950000D02*
X18446000Y-12900000D01*
X18396000Y-12850000D01*
X18346000Y-12900000D01*
X18396000Y-12950000D01*
X18650000Y-12950000D02*
X18700000Y-12900000D01*
X18650000Y-12850000D01*
X18600000Y-12900000D01*
X18650000Y-12950000D01*
X18904000Y-12950000D02*
X18954000Y-12900000D01*
X18904000Y-12850000D01*
X18854000Y-12900000D01*
X18904000Y-12950000D01*
X19158000Y-12950000D02*
X19208000Y-12900000D01*
X19158000Y-12850000D01*
X19108000Y-12900000D01*
X19158000Y-12950000D01*
X19412000Y-12950000D02*
X19462000Y-12900000D01*
X19412000Y-12850000D01*
X19362000Y-12900000D01*
X19412000Y-12950000D01*
X19666000Y-12950000D02*
X19716000Y-12900000D01*
X19666000Y-12850000D01*
X19616000Y-12900000D01*
X19666000Y-12950000D01*
D17*
X11574000Y-8223000D02*
X11684000Y-8333000D01*
X11684000Y-8223000D02*
X11574000Y-8333000D01*
X11684000Y-8278000D02*
G75*
G03*
X11684000Y-8278000I-55000J0D01*
G01*
X11574000Y-9747000D02*
X11684000Y-9857000D01*
X11684000Y-9747000D02*
X11574000Y-9857000D01*
X11684000Y-9802000D02*
G75*
G03*
X11684000Y-9802000I-55000J0D01*
G01*
X11828000Y-8223000D02*
X11938000Y-8333000D01*
X11938000Y-8223000D02*
X11828000Y-8333000D01*
X11938000Y-8278000D02*
G75*
G03*
X11938000Y-8278000I-55000J0D01*
G01*
X11828000Y-9747000D02*
X11938000Y-9857000D01*
X11938000Y-9747000D02*
X11828000Y-9857000D01*
X11938000Y-9802000D02*
G75*
G03*
X11938000Y-9802000I-55000J0D01*
G01*
X12082000Y-8223000D02*
X12192000Y-8333000D01*
X12192000Y-8223000D02*
X12082000Y-8333000D01*
X12192000Y-8278000D02*
G75*
G03*
X12192000Y-8278000I-55000J0D01*
G01*
X12082000Y-9747000D02*
X12192000Y-9857000D01*
X12192000Y-9747000D02*
X12082000Y-9857000D01*
X12192000Y-9802000D02*
G75*
G03*
X12192000Y-9802000I-55000J0D01*
G01*
X12336000Y-8223000D02*
X12446000Y-8333000D01*
X12446000Y-8223000D02*
X12336000Y-8333000D01*
X12446000Y-8278000D02*
G75*
G03*
X12446000Y-8278000I-55000J0D01*
G01*
X12336000Y-9747000D02*
X12446000Y-9857000D01*
X12446000Y-9747000D02*
X12336000Y-9857000D01*
X12446000Y-9802000D02*
G75*
G03*
X12446000Y-9802000I-55000J0D01*
G01*
X12590000Y-8223000D02*
X12700000Y-8333000D01*
X12700000Y-8223000D02*
X12590000Y-8333000D01*
X12700000Y-8278000D02*
G75*
G03*
X12700000Y-8278000I-55000J0D01*
G01*
X12590000Y-9747000D02*
X12700000Y-9857000D01*
X12700000Y-9747000D02*
X12590000Y-9857000D01*
X12700000Y-9802000D02*
G75*
G03*
X12700000Y-9802000I-55000J0D01*
G01*
X12844000Y-8223000D02*
X12954000Y-8333000D01*
X12954000Y-8223000D02*
X12844000Y-8333000D01*
X12954000Y-8278000D02*
G75*
G03*
X12954000Y-8278000I-55000J0D01*
G01*
X12844000Y-8477000D02*
X12954000Y-8587000D01*
X12954000Y-8477000D02*
X12844000Y-8587000D01*
X12954000Y-8532000D02*
G75*
G03*
X12954000Y-8532000I-55000J0D01*
G01*
X12844000Y-8731000D02*
X12954000Y-8841000D01*
X12954000Y-8731000D02*
X12844000Y-8841000D01*
X12954000Y-8786000D02*
G75*
G03*
X12954000Y-8786000I-55000J0D01*
G01*
X12844000Y-8985000D02*
X12954000Y-9095000D01*
X12954000Y-8985000D02*
X12844000Y-9095000D01*
X12954000Y-9040000D02*
G75*
G03*
X12954000Y-9040000I-55000J0D01*
G01*
X12844000Y-9239000D02*
X12954000Y-9349000D01*
X12954000Y-9239000D02*
X12844000Y-9349000D01*
X12954000Y-9294000D02*
G75*
G03*
X12954000Y-9294000I-55000J0D01*
G01*
X12844000Y-9493000D02*
X12954000Y-9603000D01*
X12954000Y-9493000D02*
X12844000Y-9603000D01*
X12954000Y-9548000D02*
G75*
G03*
X12954000Y-9548000I-55000J0D01*
G01*
X12844000Y-9747000D02*
X12954000Y-9857000D01*
X12954000Y-9747000D02*
X12844000Y-9857000D01*
X12954000Y-9802000D02*
G75*
G03*
X12954000Y-9802000I-55000J0D01*
G01*
X13098000Y-8223000D02*
X13208000Y-8333000D01*
X13208000Y-8223000D02*
X13098000Y-8333000D01*
X13208000Y-8278000D02*
G75*
G03*
X13208000Y-8278000I-55000J0D01*
G01*
X13098000Y-9747000D02*
X13208000Y-9857000D01*
X13208000Y-9747000D02*
X13098000Y-9857000D01*
X13208000Y-9802000D02*
G75*
G03*
X13208000Y-9802000I-55000J0D01*
G01*
X13352000Y-8223000D02*
X13462000Y-8333000D01*
X13462000Y-8223000D02*
X13352000Y-8333000D01*
X13462000Y-8278000D02*
G75*
G03*
X13462000Y-8278000I-55000J0D01*
G01*
X13352000Y-9747000D02*
X13462000Y-9857000D01*
X13462000Y-9747000D02*
X13352000Y-9857000D01*
X13462000Y-9802000D02*
G75*
G03*
X13462000Y-9802000I-55000J0D01*
G01*
X13606000Y-8223000D02*
X13716000Y-8333000D01*
X13716000Y-8223000D02*
X13606000Y-8333000D01*
X13716000Y-8278000D02*
G75*
G03*
X13716000Y-8278000I-55000J0D01*
G01*
X13606000Y-9747000D02*
X13716000Y-9857000D01*
X13716000Y-9747000D02*
X13606000Y-9857000D01*
X13716000Y-9802000D02*
G75*
G03*
X13716000Y-9802000I-55000J0D01*
G01*
X13860000Y-8223000D02*
X13970000Y-8333000D01*
X13970000Y-8223000D02*
X13860000Y-8333000D01*
X13970000Y-8278000D02*
G75*
G03*
X13970000Y-8278000I-55000J0D01*
G01*
X13860000Y-9747000D02*
X13970000Y-9857000D01*
X13970000Y-9747000D02*
X13860000Y-9857000D01*
X13970000Y-9802000D02*
G75*
G03*
X13970000Y-9802000I-55000J0D01*
G01*
X14114000Y-8223000D02*
X14224000Y-8333000D01*
X14224000Y-8223000D02*
X14114000Y-8333000D01*
X14224000Y-8278000D02*
G75*
G03*
X14224000Y-8278000I-55000J0D01*
G01*
X14114000Y-9747000D02*
X14224000Y-9857000D01*
X14224000Y-9747000D02*
X14114000Y-9857000D01*
X14224000Y-9802000D02*
G75*
G03*
X14224000Y-9802000I-55000J0D01*
G01*
X14368000Y-8223000D02*
X14478000Y-8333000D01*
X14478000Y-8223000D02*
X14368000Y-8333000D01*
X14478000Y-8278000D02*
G75*
G03*
X14478000Y-8278000I-55000J0D01*
G01*
X14368000Y-9747000D02*
X14478000Y-9857000D01*
X14478000Y-9747000D02*
X14368000Y-9857000D01*
X14478000Y-9802000D02*
G75*
G03*
X14478000Y-9802000I-55000J0D01*
G01*
X14622000Y-8223000D02*
X14732000Y-8333000D01*
X14732000Y-8223000D02*
X14622000Y-8333000D01*
X14732000Y-8278000D02*
G75*
G03*
X14732000Y-8278000I-55000J0D01*
G01*
X14622000Y-9747000D02*
X14732000Y-9857000D01*
X14732000Y-9747000D02*
X14622000Y-9857000D01*
X14732000Y-9802000D02*
G75*
G03*
X14732000Y-9802000I-55000J0D01*
G01*
X14876000Y-8223000D02*
X14986000Y-8333000D01*
X14986000Y-8223000D02*
X14876000Y-8333000D01*
X14986000Y-8278000D02*
G75*
G03*
X14986000Y-8278000I-55000J0D01*
G01*
X14876000Y-9747000D02*
X14986000Y-9857000D01*
X14986000Y-9747000D02*
X14876000Y-9857000D01*
X14986000Y-9802000D02*
G75*
G03*
X14986000Y-9802000I-55000J0D01*
G01*
X15130000Y-8223000D02*
X15240000Y-8333000D01*
X15240000Y-8223000D02*
X15130000Y-8333000D01*
X15240000Y-8278000D02*
G75*
G03*
X15240000Y-8278000I-55000J0D01*
G01*
X15130000Y-9747000D02*
X15240000Y-9857000D01*
X15240000Y-9747000D02*
X15130000Y-9857000D01*
X15240000Y-9802000D02*
G75*
G03*
X15240000Y-9802000I-55000J0D01*
G01*
X15384000Y-8223000D02*
X15494000Y-8333000D01*
X15494000Y-8223000D02*
X15384000Y-8333000D01*
X15494000Y-8278000D02*
G75*
G03*
X15494000Y-8278000I-55000J0D01*
G01*
X15384000Y-9747000D02*
X15494000Y-9857000D01*
X15494000Y-9747000D02*
X15384000Y-9857000D01*
X15494000Y-9802000D02*
G75*
G03*
X15494000Y-9802000I-55000J0D01*
G01*
X15638000Y-8223000D02*
X15748000Y-8333000D01*
X15748000Y-8223000D02*
X15638000Y-8333000D01*
X15748000Y-8278000D02*
G75*
G03*
X15748000Y-8278000I-55000J0D01*
G01*
X15638000Y-9747000D02*
X15748000Y-9857000D01*
X15748000Y-9747000D02*
X15638000Y-9857000D01*
X15748000Y-9802000D02*
G75*
G03*
X15748000Y-9802000I-55000J0D01*
G01*
X15770080Y-9441920D02*
X15880080Y-9551920D01*
X15880080Y-9441920D02*
X15770080Y-9551920D01*
X15880080Y-9496920D02*
G75*
G03*
X15880080Y-9496920I-55000J0D01*
G01*
X15892000Y-8223000D02*
X16002000Y-8333000D01*
X16002000Y-8223000D02*
X15892000Y-8333000D01*
X16002000Y-8278000D02*
G75*
G03*
X16002000Y-8278000I-55000J0D01*
G01*
X15892000Y-9747000D02*
X16002000Y-9857000D01*
X16002000Y-9747000D02*
X15892000Y-9857000D01*
X16002000Y-9802000D02*
G75*
G03*
X16002000Y-9802000I-55000J0D01*
G01*
X16024080Y-9441920D02*
X16134080Y-9551920D01*
X16134080Y-9441920D02*
X16024080Y-9551920D01*
X16134080Y-9496920D02*
G75*
G03*
X16134080Y-9496920I-55000J0D01*
G01*
X16146000Y-8223000D02*
X16256000Y-8333000D01*
X16256000Y-8223000D02*
X16146000Y-8333000D01*
X16256000Y-8278000D02*
G75*
G03*
X16256000Y-8278000I-55000J0D01*
G01*
X16146000Y-9747000D02*
X16256000Y-9857000D01*
X16256000Y-9747000D02*
X16146000Y-9857000D01*
X16256000Y-9802000D02*
G75*
G03*
X16256000Y-9802000I-55000J0D01*
G01*
X16278080Y-9441920D02*
X16388080Y-9551920D01*
X16388080Y-9441920D02*
X16278080Y-9551920D01*
X16388080Y-9496920D02*
G75*
G03*
X16388080Y-9496920I-55000J0D01*
G01*
X16400000Y-8223000D02*
X16510000Y-8333000D01*
X16510000Y-8223000D02*
X16400000Y-8333000D01*
X16510000Y-8278000D02*
G75*
G03*
X16510000Y-8278000I-55000J0D01*
G01*
X16400000Y-9747000D02*
X16510000Y-9857000D01*
X16510000Y-9747000D02*
X16400000Y-9857000D01*
X16510000Y-9802000D02*
G75*
G03*
X16510000Y-9802000I-55000J0D01*
G01*
X16532080Y-9441920D02*
X16642080Y-9551920D01*
X16642080Y-9441920D02*
X16532080Y-9551920D01*
X16642080Y-9496920D02*
G75*
G03*
X16642080Y-9496920I-55000J0D01*
G01*
X16654000Y-8223000D02*
X16764000Y-8333000D01*
X16764000Y-8223000D02*
X16654000Y-8333000D01*
X16764000Y-8278000D02*
G75*
G03*
X16764000Y-8278000I-55000J0D01*
G01*
X16654000Y-9747000D02*
X16764000Y-9857000D01*
X16764000Y-9747000D02*
X16654000Y-9857000D01*
X16764000Y-9802000D02*
G75*
G03*
X16764000Y-9802000I-55000J0D01*
G01*
X16786080Y-9441920D02*
X16896080Y-9551920D01*
X16896080Y-9441920D02*
X16786080Y-9551920D01*
X16896080Y-9496920D02*
G75*
G03*
X16896080Y-9496920I-55000J0D01*
G01*
X16908000Y-8223000D02*
X17018000Y-8333000D01*
X17018000Y-8223000D02*
X16908000Y-8333000D01*
X17018000Y-8278000D02*
G75*
G03*
X17018000Y-8278000I-55000J0D01*
G01*
X16908000Y-9747000D02*
X17018000Y-9857000D01*
X17018000Y-9747000D02*
X16908000Y-9857000D01*
X17018000Y-9802000D02*
G75*
G03*
X17018000Y-9802000I-55000J0D01*
G01*
X17162000Y-8223000D02*
X17272000Y-8333000D01*
X17272000Y-8223000D02*
X17162000Y-8333000D01*
X17272000Y-8278000D02*
G75*
G03*
X17272000Y-8278000I-55000J0D01*
G01*
X17162000Y-8477000D02*
X17272000Y-8587000D01*
X17272000Y-8477000D02*
X17162000Y-8587000D01*
X17272000Y-8532000D02*
G75*
G03*
X17272000Y-8532000I-55000J0D01*
G01*
X17162000Y-9747000D02*
X17272000Y-9857000D01*
X17272000Y-9747000D02*
X17162000Y-9857000D01*
X17272000Y-9802000D02*
G75*
G03*
X17272000Y-9802000I-55000J0D01*
G01*
X17416000Y-8223000D02*
X17526000Y-8333000D01*
X17526000Y-8223000D02*
X17416000Y-8333000D01*
X17526000Y-8278000D02*
G75*
G03*
X17526000Y-8278000I-55000J0D01*
G01*
X17416000Y-9747000D02*
X17526000Y-9857000D01*
X17526000Y-9747000D02*
X17416000Y-9857000D01*
X17526000Y-9802000D02*
G75*
G03*
X17526000Y-9802000I-55000J0D01*
G01*
D18*
X14785000Y-10385000D02*
X15215000Y-10815000D01*
X15215000Y-10385000D02*
X14785000Y-10815000D01*
X15000000Y-10385000D02*
X15000000Y-10815000D01*
X14785000Y-10600000D02*
X15215000Y-10600000D01*
D11*
X10247619Y-13920476D02*
X10247619Y-13720476D01*
X10295238Y-13720476D01*
X10323810Y-13730000D01*
X10342857Y-13749048D01*
X10352381Y-13768095D01*
X10361905Y-13806190D01*
X10361905Y-13834762D01*
X10352381Y-13872857D01*
X10342857Y-13891905D01*
X10323810Y-13910952D01*
X10295238Y-13920476D01*
X10247619Y-13920476D01*
X10447619Y-13920476D02*
X10447619Y-13787143D01*
X10447619Y-13825238D02*
X10457143Y-13806190D01*
X10466667Y-13796667D01*
X10485714Y-13787143D01*
X10504762Y-13787143D01*
X10571429Y-13920476D02*
X10571429Y-13787143D01*
X10571429Y-13720476D02*
X10561905Y-13730000D01*
X10571429Y-13739524D01*
X10580952Y-13730000D01*
X10571429Y-13720476D01*
X10571429Y-13739524D01*
X10695238Y-13920476D02*
X10676190Y-13910952D01*
X10666667Y-13891905D01*
X10666667Y-13720476D01*
X10800000Y-13920476D02*
X10780952Y-13910952D01*
X10771429Y-13891905D01*
X10771429Y-13720476D01*
X11028571Y-13920476D02*
X11028571Y-13720476D01*
X11095238Y-13863333D01*
X11161905Y-13720476D01*
X11161905Y-13920476D01*
X11342857Y-13920476D02*
X11342857Y-13815714D01*
X11333333Y-13796667D01*
X11314286Y-13787143D01*
X11276190Y-13787143D01*
X11257143Y-13796667D01*
X11342857Y-13910952D02*
X11323809Y-13920476D01*
X11276190Y-13920476D01*
X11257143Y-13910952D01*
X11247619Y-13891905D01*
X11247619Y-13872857D01*
X11257143Y-13853809D01*
X11276190Y-13844286D01*
X11323809Y-13844286D01*
X11342857Y-13834762D01*
X11438095Y-13787143D02*
X11438095Y-13987143D01*
X11438095Y-13796667D02*
X11457143Y-13787143D01*
X11495238Y-13787143D01*
X11514286Y-13796667D01*
X11523809Y-13806190D01*
X11533333Y-13825238D01*
X11533333Y-13882381D01*
X11523809Y-13901428D01*
X11514286Y-13910952D01*
X11495238Y-13920476D01*
X11457143Y-13920476D01*
X11438095Y-13910952D01*
X11619048Y-13901428D02*
X11628571Y-13910952D01*
X11619048Y-13920476D01*
X11609524Y-13910952D01*
X11619048Y-13901428D01*
X11619048Y-13920476D01*
X11619048Y-13796667D02*
X11628571Y-13806190D01*
X11619048Y-13815714D01*
X11609524Y-13806190D01*
X11619048Y-13796667D01*
X11619048Y-13815714D01*
D12*
X9950000Y-14230000D02*
X9990000Y-14270000D01*
X9990000Y-14230000D02*
X9950000Y-14270000D01*
D11*
X10285714Y-14140476D02*
X10304762Y-14140476D01*
X10323810Y-14150000D01*
X10333333Y-14159524D01*
X10342857Y-14178571D01*
X10352381Y-14216667D01*
X10352381Y-14264286D01*
X10342857Y-14302381D01*
X10333333Y-14321428D01*
X10323810Y-14330952D01*
X10304762Y-14340476D01*
X10285714Y-14340476D01*
X10266667Y-14330952D01*
X10257143Y-14321428D01*
X10247619Y-14302381D01*
X10238095Y-14264286D01*
X10238095Y-14216667D01*
X10247619Y-14178571D01*
X10257143Y-14159524D01*
X10266667Y-14150000D01*
X10285714Y-14140476D01*
X10438095Y-14321428D02*
X10447619Y-14330952D01*
X10438095Y-14340476D01*
X10428571Y-14330952D01*
X10438095Y-14321428D01*
X10438095Y-14340476D01*
X10619048Y-14207143D02*
X10619048Y-14340476D01*
X10571429Y-14130952D02*
X10523810Y-14273809D01*
X10647619Y-14273809D01*
X10761905Y-14140476D02*
X10780952Y-14140476D01*
X10800000Y-14150000D01*
X10809524Y-14159524D01*
X10819048Y-14178571D01*
X10828571Y-14216667D01*
X10828571Y-14264286D01*
X10819048Y-14302381D01*
X10809524Y-14321428D01*
X10800000Y-14330952D01*
X10780952Y-14340476D01*
X10761905Y-14340476D01*
X10742857Y-14330952D01*
X10733333Y-14321428D01*
X10723810Y-14302381D01*
X10714286Y-14264286D01*
X10714286Y-14216667D01*
X10723810Y-14178571D01*
X10733333Y-14159524D01*
X10742857Y-14150000D01*
X10761905Y-14140476D01*
X10952381Y-14140476D02*
X10971429Y-14140476D01*
X10990476Y-14150000D01*
X11000000Y-14159524D01*
X11009524Y-14178571D01*
X11019048Y-14216667D01*
X11019048Y-14264286D01*
X11009524Y-14302381D01*
X11000000Y-14321428D01*
X10990476Y-14330952D01*
X10971429Y-14340476D01*
X10952381Y-14340476D01*
X10933333Y-14330952D01*
X10923810Y-14321428D01*
X10914286Y-14302381D01*
X10904762Y-14264286D01*
X10904762Y-14216667D01*
X10914286Y-14178571D01*
X10923810Y-14159524D01*
X10933333Y-14150000D01*
X10952381Y-14140476D01*
X11104762Y-14340476D02*
X11104762Y-14207143D01*
X11104762Y-14226190D02*
X11114286Y-14216667D01*
X11133333Y-14207143D01*
X11161905Y-14207143D01*
X11180952Y-14216667D01*
X11190476Y-14235714D01*
X11190476Y-14340476D01*
X11190476Y-14235714D02*
X11200000Y-14216667D01*
X11219048Y-14207143D01*
X11247619Y-14207143D01*
X11266667Y-14216667D01*
X11276190Y-14235714D01*
X11276190Y-14340476D01*
X11371428Y-14340476D02*
X11371428Y-14207143D01*
X11371428Y-14226190D02*
X11380952Y-14216667D01*
X11400000Y-14207143D01*
X11428571Y-14207143D01*
X11447619Y-14216667D01*
X11457143Y-14235714D01*
X11457143Y-14340476D01*
X11457143Y-14235714D02*
X11466667Y-14216667D01*
X11485714Y-14207143D01*
X11514286Y-14207143D01*
X11533333Y-14216667D01*
X11542857Y-14235714D01*
X11542857Y-14340476D01*
X11933333Y-14130952D02*
X11761905Y-14388095D01*
X12190476Y-14140476D02*
X12209524Y-14140476D01*
X12228571Y-14150000D01*
X12238095Y-14159524D01*
X12247619Y-14178571D01*
X12257143Y-14216667D01*
X12257143Y-14264286D01*
X12247619Y-14302381D01*
X12238095Y-14321428D01*
X12228571Y-14330952D01*
X12209524Y-14340476D01*
X12190476Y-14340476D01*
X12171428Y-14330952D01*
X12161905Y-14321428D01*
X12152381Y-14302381D01*
X12142857Y-14264286D01*
X12142857Y-14216667D01*
X12152381Y-14178571D01*
X12161905Y-14159524D01*
X12171428Y-14150000D01*
X12190476Y-14140476D01*
X12342857Y-14321428D02*
X12352381Y-14330952D01*
X12342857Y-14340476D01*
X12333333Y-14330952D01*
X12342857Y-14321428D01*
X12342857Y-14340476D01*
X12476190Y-14140476D02*
X12495238Y-14140476D01*
X12514286Y-14150000D01*
X12523809Y-14159524D01*
X12533333Y-14178571D01*
X12542857Y-14216667D01*
X12542857Y-14264286D01*
X12533333Y-14302381D01*
X12523809Y-14321428D01*
X12514286Y-14330952D01*
X12495238Y-14340476D01*
X12476190Y-14340476D01*
X12457143Y-14330952D01*
X12447619Y-14321428D01*
X12438095Y-14302381D01*
X12428571Y-14264286D01*
X12428571Y-14216667D01*
X12438095Y-14178571D01*
X12447619Y-14159524D01*
X12457143Y-14150000D01*
X12476190Y-14140476D01*
X12733333Y-14340476D02*
X12619048Y-14340476D01*
X12676190Y-14340476D02*
X12676190Y-14140476D01*
X12657143Y-14169048D01*
X12638095Y-14188095D01*
X12619048Y-14197619D01*
X12914286Y-14140476D02*
X12819048Y-14140476D01*
X12809524Y-14235714D01*
X12819048Y-14226190D01*
X12838095Y-14216667D01*
X12885714Y-14216667D01*
X12904762Y-14226190D01*
X12914286Y-14235714D01*
X12923809Y-14254762D01*
X12923809Y-14302381D01*
X12914286Y-14321428D01*
X12904762Y-14330952D01*
X12885714Y-14340476D01*
X12838095Y-14340476D01*
X12819048Y-14330952D01*
X12809524Y-14321428D01*
X12990476Y-14140476D02*
X13123809Y-14140476D01*
X13038095Y-14340476D01*
X13190476Y-14140476D02*
X13190476Y-14178571D01*
X13266667Y-14140476D02*
X13266667Y-14178571D01*
X13561905Y-14416667D02*
X13552381Y-14407143D01*
X13533333Y-14378571D01*
X13523809Y-14359524D01*
X13514286Y-14330952D01*
X13504762Y-14283333D01*
X13504762Y-14245238D01*
X13514286Y-14197619D01*
X13523809Y-14169048D01*
X13533333Y-14150000D01*
X13552381Y-14121428D01*
X13561905Y-14111905D01*
X13619048Y-14140476D02*
X13742857Y-14140476D01*
X13676190Y-14216667D01*
X13704762Y-14216667D01*
X13723809Y-14226190D01*
X13733333Y-14235714D01*
X13742857Y-14254762D01*
X13742857Y-14302381D01*
X13733333Y-14321428D01*
X13723809Y-14330952D01*
X13704762Y-14340476D01*
X13647619Y-14340476D01*
X13628571Y-14330952D01*
X13619048Y-14321428D01*
X13809524Y-14140476D02*
X13933333Y-14140476D01*
X13866667Y-14216667D01*
X13895238Y-14216667D01*
X13914286Y-14226190D01*
X13923809Y-14235714D01*
X13933333Y-14254762D01*
X13933333Y-14302381D01*
X13923809Y-14321428D01*
X13914286Y-14330952D01*
X13895238Y-14340476D01*
X13838095Y-14340476D01*
X13819048Y-14330952D01*
X13809524Y-14321428D01*
X14171428Y-14340476D02*
X14171428Y-14140476D01*
X14257143Y-14340476D02*
X14257143Y-14235714D01*
X14247619Y-14216667D01*
X14228571Y-14207143D01*
X14200000Y-14207143D01*
X14180952Y-14216667D01*
X14171428Y-14226190D01*
X14380952Y-14340476D02*
X14361905Y-14330952D01*
X14352381Y-14321428D01*
X14342857Y-14302381D01*
X14342857Y-14245238D01*
X14352381Y-14226190D01*
X14361905Y-14216667D01*
X14380952Y-14207143D01*
X14409524Y-14207143D01*
X14428571Y-14216667D01*
X14438095Y-14226190D01*
X14447619Y-14245238D01*
X14447619Y-14302381D01*
X14438095Y-14321428D01*
X14428571Y-14330952D01*
X14409524Y-14340476D01*
X14380952Y-14340476D01*
X14561905Y-14340476D02*
X14542857Y-14330952D01*
X14533333Y-14311905D01*
X14533333Y-14140476D01*
X14714286Y-14330952D02*
X14695238Y-14340476D01*
X14657143Y-14340476D01*
X14638095Y-14330952D01*
X14628571Y-14311905D01*
X14628571Y-14235714D01*
X14638095Y-14216667D01*
X14657143Y-14207143D01*
X14695238Y-14207143D01*
X14714286Y-14216667D01*
X14723809Y-14235714D01*
X14723809Y-14254762D01*
X14628571Y-14273809D01*
X14800000Y-14330952D02*
X14819048Y-14340476D01*
X14857143Y-14340476D01*
X14876190Y-14330952D01*
X14885714Y-14311905D01*
X14885714Y-14302381D01*
X14876190Y-14283333D01*
X14857143Y-14273809D01*
X14828571Y-14273809D01*
X14809524Y-14264286D01*
X14800000Y-14245238D01*
X14800000Y-14235714D01*
X14809524Y-14216667D01*
X14828571Y-14207143D01*
X14857143Y-14207143D01*
X14876190Y-14216667D01*
X14952381Y-14416667D02*
X14961905Y-14407143D01*
X14980952Y-14378571D01*
X14990476Y-14359524D01*
X15000000Y-14330952D01*
X15009524Y-14283333D01*
X15009524Y-14245238D01*
X15000000Y-14197619D01*
X14990476Y-14169048D01*
X14980952Y-14150000D01*
X14961905Y-14121428D01*
X14952381Y-14111905D01*
D13*
X9990000Y-14514000D02*
G75*
G03*
X9990000Y-14514000I-35000J0D01*
G01*
D11*
X10285714Y-14404476D02*
X10304762Y-14404476D01*
X10323810Y-14414000D01*
X10333333Y-14423524D01*
X10342857Y-14442571D01*
X10352381Y-14480667D01*
X10352381Y-14528286D01*
X10342857Y-14566381D01*
X10333333Y-14585428D01*
X10323810Y-14594952D01*
X10304762Y-14604476D01*
X10285714Y-14604476D01*
X10266667Y-14594952D01*
X10257143Y-14585428D01*
X10247619Y-14566381D01*
X10238095Y-14528286D01*
X10238095Y-14480667D01*
X10247619Y-14442571D01*
X10257143Y-14423524D01*
X10266667Y-14414000D01*
X10285714Y-14404476D01*
X10438095Y-14585428D02*
X10447619Y-14594952D01*
X10438095Y-14604476D01*
X10428571Y-14594952D01*
X10438095Y-14585428D01*
X10438095Y-14604476D01*
X10514286Y-14404476D02*
X10647619Y-14404476D01*
X10561905Y-14604476D01*
X10761905Y-14404476D02*
X10780952Y-14404476D01*
X10800000Y-14414000D01*
X10809524Y-14423524D01*
X10819048Y-14442571D01*
X10828571Y-14480667D01*
X10828571Y-14528286D01*
X10819048Y-14566381D01*
X10809524Y-14585428D01*
X10800000Y-14594952D01*
X10780952Y-14604476D01*
X10761905Y-14604476D01*
X10742857Y-14594952D01*
X10733333Y-14585428D01*
X10723810Y-14566381D01*
X10714286Y-14528286D01*
X10714286Y-14480667D01*
X10723810Y-14442571D01*
X10733333Y-14423524D01*
X10742857Y-14414000D01*
X10761905Y-14404476D01*
X10952381Y-14404476D02*
X10971429Y-14404476D01*
X10990476Y-14414000D01*
X11000000Y-14423524D01*
X11009524Y-14442571D01*
X11019048Y-14480667D01*
X11019048Y-14528286D01*
X11009524Y-14566381D01*
X11000000Y-14585428D01*
X10990476Y-14594952D01*
X10971429Y-14604476D01*
X10952381Y-14604476D01*
X10933333Y-14594952D01*
X10923810Y-14585428D01*
X10914286Y-14566381D01*
X10904762Y-14528286D01*
X10904762Y-14480667D01*
X10914286Y-14442571D01*
X10923810Y-14423524D01*
X10933333Y-14414000D01*
X10952381Y-14404476D01*
X11104762Y-14604476D02*
X11104762Y-14471143D01*
X11104762Y-14490190D02*
X11114286Y-14480667D01*
X11133333Y-14471143D01*
X11161905Y-14471143D01*
X11180952Y-14480667D01*
X11190476Y-14499714D01*
X11190476Y-14604476D01*
X11190476Y-14499714D02*
X11200000Y-14480667D01*
X11219048Y-14471143D01*
X11247619Y-14471143D01*
X11266667Y-14480667D01*
X11276190Y-14499714D01*
X11276190Y-14604476D01*
X11371428Y-14604476D02*
X11371428Y-14471143D01*
X11371428Y-14490190D02*
X11380952Y-14480667D01*
X11400000Y-14471143D01*
X11428571Y-14471143D01*
X11447619Y-14480667D01*
X11457143Y-14499714D01*
X11457143Y-14604476D01*
X11457143Y-14499714D02*
X11466667Y-14480667D01*
X11485714Y-14471143D01*
X11514286Y-14471143D01*
X11533333Y-14480667D01*
X11542857Y-14499714D01*
X11542857Y-14604476D01*
X11933333Y-14394952D02*
X11761905Y-14652095D01*
X12190476Y-14404476D02*
X12209524Y-14404476D01*
X12228571Y-14414000D01*
X12238095Y-14423524D01*
X12247619Y-14442571D01*
X12257143Y-14480667D01*
X12257143Y-14528286D01*
X12247619Y-14566381D01*
X12238095Y-14585428D01*
X12228571Y-14594952D01*
X12209524Y-14604476D01*
X12190476Y-14604476D01*
X12171428Y-14594952D01*
X12161905Y-14585428D01*
X12152381Y-14566381D01*
X12142857Y-14528286D01*
X12142857Y-14480667D01*
X12152381Y-14442571D01*
X12161905Y-14423524D01*
X12171428Y-14414000D01*
X12190476Y-14404476D01*
X12342857Y-14585428D02*
X12352381Y-14594952D01*
X12342857Y-14604476D01*
X12333333Y-14594952D01*
X12342857Y-14585428D01*
X12342857Y-14604476D01*
X12476190Y-14404476D02*
X12495238Y-14404476D01*
X12514286Y-14414000D01*
X12523809Y-14423524D01*
X12533333Y-14442571D01*
X12542857Y-14480667D01*
X12542857Y-14528286D01*
X12533333Y-14566381D01*
X12523809Y-14585428D01*
X12514286Y-14594952D01*
X12495238Y-14604476D01*
X12476190Y-14604476D01*
X12457143Y-14594952D01*
X12447619Y-14585428D01*
X12438095Y-14566381D01*
X12428571Y-14528286D01*
X12428571Y-14480667D01*
X12438095Y-14442571D01*
X12447619Y-14423524D01*
X12457143Y-14414000D01*
X12476190Y-14404476D01*
X12619048Y-14423524D02*
X12628571Y-14414000D01*
X12647619Y-14404476D01*
X12695238Y-14404476D01*
X12714286Y-14414000D01*
X12723809Y-14423524D01*
X12733333Y-14442571D01*
X12733333Y-14461619D01*
X12723809Y-14490190D01*
X12609524Y-14604476D01*
X12733333Y-14604476D01*
X12800000Y-14404476D02*
X12933333Y-14404476D01*
X12847619Y-14604476D01*
X13095238Y-14404476D02*
X13057143Y-14404476D01*
X13038095Y-14414000D01*
X13028571Y-14423524D01*
X13009524Y-14452095D01*
X13000000Y-14490190D01*
X13000000Y-14566381D01*
X13009524Y-14585428D01*
X13019048Y-14594952D01*
X13038095Y-14604476D01*
X13076190Y-14604476D01*
X13095238Y-14594952D01*
X13104762Y-14585428D01*
X13114286Y-14566381D01*
X13114286Y-14518762D01*
X13104762Y-14499714D01*
X13095238Y-14490190D01*
X13076190Y-14480667D01*
X13038095Y-14480667D01*
X13019048Y-14490190D01*
X13009524Y-14499714D01*
X13000000Y-14518762D01*
X13190476Y-14404476D02*
X13190476Y-14442571D01*
X13266667Y-14404476D02*
X13266667Y-14442571D01*
X13561905Y-14680667D02*
X13552381Y-14671143D01*
X13533333Y-14642571D01*
X13523809Y-14623524D01*
X13514286Y-14594952D01*
X13504762Y-14547333D01*
X13504762Y-14509238D01*
X13514286Y-14461619D01*
X13523809Y-14433048D01*
X13533333Y-14414000D01*
X13552381Y-14385428D01*
X13561905Y-14375905D01*
X13666667Y-14490190D02*
X13647619Y-14480667D01*
X13638095Y-14471143D01*
X13628571Y-14452095D01*
X13628571Y-14442571D01*
X13638095Y-14423524D01*
X13647619Y-14414000D01*
X13666667Y-14404476D01*
X13704762Y-14404476D01*
X13723809Y-14414000D01*
X13733333Y-14423524D01*
X13742857Y-14442571D01*
X13742857Y-14452095D01*
X13733333Y-14471143D01*
X13723809Y-14480667D01*
X13704762Y-14490190D01*
X13666667Y-14490190D01*
X13647619Y-14499714D01*
X13638095Y-14509238D01*
X13628571Y-14528286D01*
X13628571Y-14566381D01*
X13638095Y-14585428D01*
X13647619Y-14594952D01*
X13666667Y-14604476D01*
X13704762Y-14604476D01*
X13723809Y-14594952D01*
X13733333Y-14585428D01*
X13742857Y-14566381D01*
X13742857Y-14528286D01*
X13733333Y-14509238D01*
X13723809Y-14499714D01*
X13704762Y-14490190D01*
X13980952Y-14604476D02*
X13980952Y-14404476D01*
X14066667Y-14604476D02*
X14066667Y-14499714D01*
X14057143Y-14480667D01*
X14038095Y-14471143D01*
X14009524Y-14471143D01*
X13990476Y-14480667D01*
X13980952Y-14490190D01*
X14190476Y-14604476D02*
X14171428Y-14594952D01*
X14161905Y-14585428D01*
X14152381Y-14566381D01*
X14152381Y-14509238D01*
X14161905Y-14490190D01*
X14171428Y-14480667D01*
X14190476Y-14471143D01*
X14219048Y-14471143D01*
X14238095Y-14480667D01*
X14247619Y-14490190D01*
X14257143Y-14509238D01*
X14257143Y-14566381D01*
X14247619Y-14585428D01*
X14238095Y-14594952D01*
X14219048Y-14604476D01*
X14190476Y-14604476D01*
X14371428Y-14604476D02*
X14352381Y-14594952D01*
X14342857Y-14575905D01*
X14342857Y-14404476D01*
X14523809Y-14594952D02*
X14504762Y-14604476D01*
X14466667Y-14604476D01*
X14447619Y-14594952D01*
X14438095Y-14575905D01*
X14438095Y-14499714D01*
X14447619Y-14480667D01*
X14466667Y-14471143D01*
X14504762Y-14471143D01*
X14523809Y-14480667D01*
X14533333Y-14499714D01*
X14533333Y-14518762D01*
X14438095Y-14537809D01*
X14609524Y-14594952D02*
X14628571Y-14604476D01*
X14666667Y-14604476D01*
X14685714Y-14594952D01*
X14695238Y-14575905D01*
X14695238Y-14566381D01*
X14685714Y-14547333D01*
X14666667Y-14537809D01*
X14638095Y-14537809D01*
X14619048Y-14528286D01*
X14609524Y-14509238D01*
X14609524Y-14499714D01*
X14619048Y-14480667D01*
X14638095Y-14471143D01*
X14666667Y-14471143D01*
X14685714Y-14480667D01*
X14761905Y-14680667D02*
X14771428Y-14671143D01*
X14790476Y-14642571D01*
X14800000Y-14623524D01*
X14809524Y-14594952D01*
X14819048Y-14547333D01*
X14819048Y-14509238D01*
X14809524Y-14461619D01*
X14800000Y-14433048D01*
X14790476Y-14414000D01*
X14771428Y-14385428D01*
X14761905Y-14375905D01*
D14*
X9950000Y-14738000D02*
X9950000Y-14818000D01*
X9910000Y-14778000D02*
X9990000Y-14778000D01*
D11*
X10285714Y-14668476D02*
X10304762Y-14668476D01*
X10323810Y-14678000D01*
X10333333Y-14687524D01*
X10342857Y-14706571D01*
X10352381Y-14744667D01*
X10352381Y-14792286D01*
X10342857Y-14830381D01*
X10333333Y-14849428D01*
X10323810Y-14858952D01*
X10304762Y-14868476D01*
X10285714Y-14868476D01*
X10266667Y-14858952D01*
X10257143Y-14849428D01*
X10247619Y-14830381D01*
X10238095Y-14792286D01*
X10238095Y-14744667D01*
X10247619Y-14706571D01*
X10257143Y-14687524D01*
X10266667Y-14678000D01*
X10285714Y-14668476D01*
X10438095Y-14849428D02*
X10447619Y-14858952D01*
X10438095Y-14868476D01*
X10428571Y-14858952D01*
X10438095Y-14849428D01*
X10438095Y-14868476D01*
X10561905Y-14754190D02*
X10542857Y-14744667D01*
X10533333Y-14735143D01*
X10523810Y-14716095D01*
X10523810Y-14706571D01*
X10533333Y-14687524D01*
X10542857Y-14678000D01*
X10561905Y-14668476D01*
X10600000Y-14668476D01*
X10619048Y-14678000D01*
X10628571Y-14687524D01*
X10638095Y-14706571D01*
X10638095Y-14716095D01*
X10628571Y-14735143D01*
X10619048Y-14744667D01*
X10600000Y-14754190D01*
X10561905Y-14754190D01*
X10542857Y-14763714D01*
X10533333Y-14773238D01*
X10523810Y-14792286D01*
X10523810Y-14830381D01*
X10533333Y-14849428D01*
X10542857Y-14858952D01*
X10561905Y-14868476D01*
X10600000Y-14868476D01*
X10619048Y-14858952D01*
X10628571Y-14849428D01*
X10638095Y-14830381D01*
X10638095Y-14792286D01*
X10628571Y-14773238D01*
X10619048Y-14763714D01*
X10600000Y-14754190D01*
X10761905Y-14668476D02*
X10780952Y-14668476D01*
X10800000Y-14678000D01*
X10809524Y-14687524D01*
X10819048Y-14706571D01*
X10828571Y-14744667D01*
X10828571Y-14792286D01*
X10819048Y-14830381D01*
X10809524Y-14849428D01*
X10800000Y-14858952D01*
X10780952Y-14868476D01*
X10761905Y-14868476D01*
X10742857Y-14858952D01*
X10733333Y-14849428D01*
X10723810Y-14830381D01*
X10714286Y-14792286D01*
X10714286Y-14744667D01*
X10723810Y-14706571D01*
X10733333Y-14687524D01*
X10742857Y-14678000D01*
X10761905Y-14668476D01*
X10952381Y-14668476D02*
X10971429Y-14668476D01*
X10990476Y-14678000D01*
X11000000Y-14687524D01*
X11009524Y-14706571D01*
X11019048Y-14744667D01*
X11019048Y-14792286D01*
X11009524Y-14830381D01*
X11000000Y-14849428D01*
X10990476Y-14858952D01*
X10971429Y-14868476D01*
X10952381Y-14868476D01*
X10933333Y-14858952D01*
X10923810Y-14849428D01*
X10914286Y-14830381D01*
X10904762Y-14792286D01*
X10904762Y-14744667D01*
X10914286Y-14706571D01*
X10923810Y-14687524D01*
X10933333Y-14678000D01*
X10952381Y-14668476D01*
X11104762Y-14868476D02*
X11104762Y-14735143D01*
X11104762Y-14754190D02*
X11114286Y-14744667D01*
X11133333Y-14735143D01*
X11161905Y-14735143D01*
X11180952Y-14744667D01*
X11190476Y-14763714D01*
X11190476Y-14868476D01*
X11190476Y-14763714D02*
X11200000Y-14744667D01*
X11219048Y-14735143D01*
X11247619Y-14735143D01*
X11266667Y-14744667D01*
X11276190Y-14763714D01*
X11276190Y-14868476D01*
X11371428Y-14868476D02*
X11371428Y-14735143D01*
X11371428Y-14754190D02*
X11380952Y-14744667D01*
X11400000Y-14735143D01*
X11428571Y-14735143D01*
X11447619Y-14744667D01*
X11457143Y-14763714D01*
X11457143Y-14868476D01*
X11457143Y-14763714D02*
X11466667Y-14744667D01*
X11485714Y-14735143D01*
X11514286Y-14735143D01*
X11533333Y-14744667D01*
X11542857Y-14763714D01*
X11542857Y-14868476D01*
X11933333Y-14658952D02*
X11761905Y-14916095D01*
X12190476Y-14668476D02*
X12209524Y-14668476D01*
X12228571Y-14678000D01*
X12238095Y-14687524D01*
X12247619Y-14706571D01*
X12257143Y-14744667D01*
X12257143Y-14792286D01*
X12247619Y-14830381D01*
X12238095Y-14849428D01*
X12228571Y-14858952D01*
X12209524Y-14868476D01*
X12190476Y-14868476D01*
X12171428Y-14858952D01*
X12161905Y-14849428D01*
X12152381Y-14830381D01*
X12142857Y-14792286D01*
X12142857Y-14744667D01*
X12152381Y-14706571D01*
X12161905Y-14687524D01*
X12171428Y-14678000D01*
X12190476Y-14668476D01*
X12342857Y-14849428D02*
X12352381Y-14858952D01*
X12342857Y-14868476D01*
X12333333Y-14858952D01*
X12342857Y-14849428D01*
X12342857Y-14868476D01*
X12476190Y-14668476D02*
X12495238Y-14668476D01*
X12514286Y-14678000D01*
X12523809Y-14687524D01*
X12533333Y-14706571D01*
X12542857Y-14744667D01*
X12542857Y-14792286D01*
X12533333Y-14830381D01*
X12523809Y-14849428D01*
X12514286Y-14858952D01*
X12495238Y-14868476D01*
X12476190Y-14868476D01*
X12457143Y-14858952D01*
X12447619Y-14849428D01*
X12438095Y-14830381D01*
X12428571Y-14792286D01*
X12428571Y-14744667D01*
X12438095Y-14706571D01*
X12447619Y-14687524D01*
X12457143Y-14678000D01*
X12476190Y-14668476D01*
X12609524Y-14668476D02*
X12733333Y-14668476D01*
X12666667Y-14744667D01*
X12695238Y-14744667D01*
X12714286Y-14754190D01*
X12723809Y-14763714D01*
X12733333Y-14782762D01*
X12733333Y-14830381D01*
X12723809Y-14849428D01*
X12714286Y-14858952D01*
X12695238Y-14868476D01*
X12638095Y-14868476D01*
X12619048Y-14858952D01*
X12609524Y-14849428D01*
X12923809Y-14868476D02*
X12809524Y-14868476D01*
X12866667Y-14868476D02*
X12866667Y-14668476D01*
X12847619Y-14697048D01*
X12828571Y-14716095D01*
X12809524Y-14725619D01*
X13104762Y-14668476D02*
X13009524Y-14668476D01*
X13000000Y-14763714D01*
X13009524Y-14754190D01*
X13028571Y-14744667D01*
X13076190Y-14744667D01*
X13095238Y-14754190D01*
X13104762Y-14763714D01*
X13114286Y-14782762D01*
X13114286Y-14830381D01*
X13104762Y-14849428D01*
X13095238Y-14858952D01*
X13076190Y-14868476D01*
X13028571Y-14868476D01*
X13009524Y-14858952D01*
X13000000Y-14849428D01*
X13190476Y-14668476D02*
X13190476Y-14706571D01*
X13266667Y-14668476D02*
X13266667Y-14706571D01*
X13561905Y-14944667D02*
X13552381Y-14935143D01*
X13533333Y-14906571D01*
X13523809Y-14887524D01*
X13514286Y-14858952D01*
X13504762Y-14811333D01*
X13504762Y-14773238D01*
X13514286Y-14725619D01*
X13523809Y-14697048D01*
X13533333Y-14678000D01*
X13552381Y-14649428D01*
X13561905Y-14639905D01*
X13723809Y-14668476D02*
X13685714Y-14668476D01*
X13666667Y-14678000D01*
X13657143Y-14687524D01*
X13638095Y-14716095D01*
X13628571Y-14754190D01*
X13628571Y-14830381D01*
X13638095Y-14849428D01*
X13647619Y-14858952D01*
X13666667Y-14868476D01*
X13704762Y-14868476D01*
X13723809Y-14858952D01*
X13733333Y-14849428D01*
X13742857Y-14830381D01*
X13742857Y-14782762D01*
X13733333Y-14763714D01*
X13723809Y-14754190D01*
X13704762Y-14744667D01*
X13666667Y-14744667D01*
X13647619Y-14754190D01*
X13638095Y-14763714D01*
X13628571Y-14782762D01*
X13866667Y-14668476D02*
X13885714Y-14668476D01*
X13904762Y-14678000D01*
X13914286Y-14687524D01*
X13923809Y-14706571D01*
X13933333Y-14744667D01*
X13933333Y-14792286D01*
X13923809Y-14830381D01*
X13914286Y-14849428D01*
X13904762Y-14858952D01*
X13885714Y-14868476D01*
X13866667Y-14868476D01*
X13847619Y-14858952D01*
X13838095Y-14849428D01*
X13828571Y-14830381D01*
X13819048Y-14792286D01*
X13819048Y-14744667D01*
X13828571Y-14706571D01*
X13838095Y-14687524D01*
X13847619Y-14678000D01*
X13866667Y-14668476D01*
X14171428Y-14868476D02*
X14171428Y-14668476D01*
X14257143Y-14868476D02*
X14257143Y-14763714D01*
X14247619Y-14744667D01*
X14228571Y-14735143D01*
X14200000Y-14735143D01*
X14180952Y-14744667D01*
X14171428Y-14754190D01*
X14380952Y-14868476D02*
X14361905Y-14858952D01*
X14352381Y-14849428D01*
X14342857Y-14830381D01*
X14342857Y-14773238D01*
X14352381Y-14754190D01*
X14361905Y-14744667D01*
X14380952Y-14735143D01*
X14409524Y-14735143D01*
X14428571Y-14744667D01*
X14438095Y-14754190D01*
X14447619Y-14773238D01*
X14447619Y-14830381D01*
X14438095Y-14849428D01*
X14428571Y-14858952D01*
X14409524Y-14868476D01*
X14380952Y-14868476D01*
X14561905Y-14868476D02*
X14542857Y-14858952D01*
X14533333Y-14839905D01*
X14533333Y-14668476D01*
X14714286Y-14858952D02*
X14695238Y-14868476D01*
X14657143Y-14868476D01*
X14638095Y-14858952D01*
X14628571Y-14839905D01*
X14628571Y-14763714D01*
X14638095Y-14744667D01*
X14657143Y-14735143D01*
X14695238Y-14735143D01*
X14714286Y-14744667D01*
X14723809Y-14763714D01*
X14723809Y-14782762D01*
X14628571Y-14801809D01*
X14800000Y-14858952D02*
X14819048Y-14868476D01*
X14857143Y-14868476D01*
X14876190Y-14858952D01*
X14885714Y-14839905D01*
X14885714Y-14830381D01*
X14876190Y-14811333D01*
X14857143Y-14801809D01*
X14828571Y-14801809D01*
X14809524Y-14792286D01*
X14800000Y-14773238D01*
X14800000Y-14763714D01*
X14809524Y-14744667D01*
X14828571Y-14735143D01*
X14857143Y-14735143D01*
X14876190Y-14744667D01*
X14952381Y-14944667D02*
X14961905Y-14935143D01*
X14980952Y-14906571D01*
X14990476Y-14887524D01*
X15000000Y-14858952D01*
X15009524Y-14811333D01*
X15009524Y-14773238D01*
X15000000Y-14725619D01*
X14990476Y-14697048D01*
X14980952Y-14678000D01*
X14961905Y-14649428D01*
X14952381Y-14639905D01*
D15*
X9976820Y-15073820D02*
X9976820Y-15010180D01*
X9913180Y-15010180D01*
X9913180Y-15073820D01*
X9976820Y-15073820D01*
D11*
X10285714Y-14932476D02*
X10304762Y-14932476D01*
X10323810Y-14942000D01*
X10333333Y-14951524D01*
X10342857Y-14970571D01*
X10352381Y-15008667D01*
X10352381Y-15056286D01*
X10342857Y-15094381D01*
X10333333Y-15113428D01*
X10323810Y-15122952D01*
X10304762Y-15132476D01*
X10285714Y-15132476D01*
X10266667Y-15122952D01*
X10257143Y-15113428D01*
X10247619Y-15094381D01*
X10238095Y-15056286D01*
X10238095Y-15008667D01*
X10247619Y-14970571D01*
X10257143Y-14951524D01*
X10266667Y-14942000D01*
X10285714Y-14932476D01*
X10438095Y-15113428D02*
X10447619Y-15122952D01*
X10438095Y-15132476D01*
X10428571Y-15122952D01*
X10438095Y-15113428D01*
X10438095Y-15132476D01*
X10542857Y-15132476D02*
X10580952Y-15132476D01*
X10600000Y-15122952D01*
X10609524Y-15113428D01*
X10628571Y-15084857D01*
X10638095Y-15046762D01*
X10638095Y-14970571D01*
X10628571Y-14951524D01*
X10619048Y-14942000D01*
X10600000Y-14932476D01*
X10561905Y-14932476D01*
X10542857Y-14942000D01*
X10533333Y-14951524D01*
X10523810Y-14970571D01*
X10523810Y-15018190D01*
X10533333Y-15037238D01*
X10542857Y-15046762D01*
X10561905Y-15056286D01*
X10600000Y-15056286D01*
X10619048Y-15046762D01*
X10628571Y-15037238D01*
X10638095Y-15018190D01*
X10761905Y-14932476D02*
X10780952Y-14932476D01*
X10800000Y-14942000D01*
X10809524Y-14951524D01*
X10819048Y-14970571D01*
X10828571Y-15008667D01*
X10828571Y-15056286D01*
X10819048Y-15094381D01*
X10809524Y-15113428D01*
X10800000Y-15122952D01*
X10780952Y-15132476D01*
X10761905Y-15132476D01*
X10742857Y-15122952D01*
X10733333Y-15113428D01*
X10723810Y-15094381D01*
X10714286Y-15056286D01*
X10714286Y-15008667D01*
X10723810Y-14970571D01*
X10733333Y-14951524D01*
X10742857Y-14942000D01*
X10761905Y-14932476D01*
X10952381Y-14932476D02*
X10971429Y-14932476D01*
X10990476Y-14942000D01*
X11000000Y-14951524D01*
X11009524Y-14970571D01*
X11019048Y-15008667D01*
X11019048Y-15056286D01*
X11009524Y-15094381D01*
X11000000Y-15113428D01*
X10990476Y-15122952D01*
X10971429Y-15132476D01*
X10952381Y-15132476D01*
X10933333Y-15122952D01*
X10923810Y-15113428D01*
X10914286Y-15094381D01*
X10904762Y-15056286D01*
X10904762Y-15008667D01*
X10914286Y-14970571D01*
X10923810Y-14951524D01*
X10933333Y-14942000D01*
X10952381Y-14932476D01*
X11104762Y-15132476D02*
X11104762Y-14999143D01*
X11104762Y-15018190D02*
X11114286Y-15008667D01*
X11133333Y-14999143D01*
X11161905Y-14999143D01*
X11180952Y-15008667D01*
X11190476Y-15027714D01*
X11190476Y-15132476D01*
X11190476Y-15027714D02*
X11200000Y-15008667D01*
X11219048Y-14999143D01*
X11247619Y-14999143D01*
X11266667Y-15008667D01*
X11276190Y-15027714D01*
X11276190Y-15132476D01*
X11371428Y-15132476D02*
X11371428Y-14999143D01*
X11371428Y-15018190D02*
X11380952Y-15008667D01*
X11400000Y-14999143D01*
X11428571Y-14999143D01*
X11447619Y-15008667D01*
X11457143Y-15027714D01*
X11457143Y-15132476D01*
X11457143Y-15027714D02*
X11466667Y-15008667D01*
X11485714Y-14999143D01*
X11514286Y-14999143D01*
X11533333Y-15008667D01*
X11542857Y-15027714D01*
X11542857Y-15132476D01*
X11933333Y-14922952D02*
X11761905Y-15180095D01*
X12190476Y-14932476D02*
X12209524Y-14932476D01*
X12228571Y-14942000D01*
X12238095Y-14951524D01*
X12247619Y-14970571D01*
X12257143Y-15008667D01*
X12257143Y-15056286D01*
X12247619Y-15094381D01*
X12238095Y-15113428D01*
X12228571Y-15122952D01*
X12209524Y-15132476D01*
X12190476Y-15132476D01*
X12171428Y-15122952D01*
X12161905Y-15113428D01*
X12152381Y-15094381D01*
X12142857Y-15056286D01*
X12142857Y-15008667D01*
X12152381Y-14970571D01*
X12161905Y-14951524D01*
X12171428Y-14942000D01*
X12190476Y-14932476D01*
X12342857Y-15113428D02*
X12352381Y-15122952D01*
X12342857Y-15132476D01*
X12333333Y-15122952D01*
X12342857Y-15113428D01*
X12342857Y-15132476D01*
X12476190Y-14932476D02*
X12495238Y-14932476D01*
X12514286Y-14942000D01*
X12523809Y-14951524D01*
X12533333Y-14970571D01*
X12542857Y-15008667D01*
X12542857Y-15056286D01*
X12533333Y-15094381D01*
X12523809Y-15113428D01*
X12514286Y-15122952D01*
X12495238Y-15132476D01*
X12476190Y-15132476D01*
X12457143Y-15122952D01*
X12447619Y-15113428D01*
X12438095Y-15094381D01*
X12428571Y-15056286D01*
X12428571Y-15008667D01*
X12438095Y-14970571D01*
X12447619Y-14951524D01*
X12457143Y-14942000D01*
X12476190Y-14932476D01*
X12609524Y-14932476D02*
X12733333Y-14932476D01*
X12666667Y-15008667D01*
X12695238Y-15008667D01*
X12714286Y-15018190D01*
X12723809Y-15027714D01*
X12733333Y-15046762D01*
X12733333Y-15094381D01*
X12723809Y-15113428D01*
X12714286Y-15122952D01*
X12695238Y-15132476D01*
X12638095Y-15132476D01*
X12619048Y-15122952D01*
X12609524Y-15113428D01*
X12914286Y-14932476D02*
X12819048Y-14932476D01*
X12809524Y-15027714D01*
X12819048Y-15018190D01*
X12838095Y-15008667D01*
X12885714Y-15008667D01*
X12904762Y-15018190D01*
X12914286Y-15027714D01*
X12923809Y-15046762D01*
X12923809Y-15094381D01*
X12914286Y-15113428D01*
X12904762Y-15122952D01*
X12885714Y-15132476D01*
X12838095Y-15132476D01*
X12819048Y-15122952D01*
X12809524Y-15113428D01*
X13095238Y-14999143D02*
X13095238Y-15132476D01*
X13047619Y-14922952D02*
X13000000Y-15065809D01*
X13123809Y-15065809D01*
X13190476Y-14932476D02*
X13190476Y-14970571D01*
X13266667Y-14932476D02*
X13266667Y-14970571D01*
X13561905Y-15208667D02*
X13552381Y-15199143D01*
X13533333Y-15170571D01*
X13523809Y-15151524D01*
X13514286Y-15122952D01*
X13504762Y-15075333D01*
X13504762Y-15037238D01*
X13514286Y-14989619D01*
X13523809Y-14961048D01*
X13533333Y-14942000D01*
X13552381Y-14913428D01*
X13561905Y-14903905D01*
X13666667Y-15018190D02*
X13647619Y-15008667D01*
X13638095Y-14999143D01*
X13628571Y-14980095D01*
X13628571Y-14970571D01*
X13638095Y-14951524D01*
X13647619Y-14942000D01*
X13666667Y-14932476D01*
X13704762Y-14932476D01*
X13723809Y-14942000D01*
X13733333Y-14951524D01*
X13742857Y-14970571D01*
X13742857Y-14980095D01*
X13733333Y-14999143D01*
X13723809Y-15008667D01*
X13704762Y-15018190D01*
X13666667Y-15018190D01*
X13647619Y-15027714D01*
X13638095Y-15037238D01*
X13628571Y-15056286D01*
X13628571Y-15094381D01*
X13638095Y-15113428D01*
X13647619Y-15122952D01*
X13666667Y-15132476D01*
X13704762Y-15132476D01*
X13723809Y-15122952D01*
X13733333Y-15113428D01*
X13742857Y-15094381D01*
X13742857Y-15056286D01*
X13733333Y-15037238D01*
X13723809Y-15027714D01*
X13704762Y-15018190D01*
X13980952Y-15132476D02*
X13980952Y-14932476D01*
X14066667Y-15132476D02*
X14066667Y-15027714D01*
X14057143Y-15008667D01*
X14038095Y-14999143D01*
X14009524Y-14999143D01*
X13990476Y-15008667D01*
X13980952Y-15018190D01*
X14190476Y-15132476D02*
X14171428Y-15122952D01*
X14161905Y-15113428D01*
X14152381Y-15094381D01*
X14152381Y-15037238D01*
X14161905Y-15018190D01*
X14171428Y-15008667D01*
X14190476Y-14999143D01*
X14219048Y-14999143D01*
X14238095Y-15008667D01*
X14247619Y-15018190D01*
X14257143Y-15037238D01*
X14257143Y-15094381D01*
X14247619Y-15113428D01*
X14238095Y-15122952D01*
X14219048Y-15132476D01*
X14190476Y-15132476D01*
X14371428Y-15132476D02*
X14352381Y-15122952D01*
X14342857Y-15103905D01*
X14342857Y-14932476D01*
X14523809Y-15122952D02*
X14504762Y-15132476D01*
X14466667Y-15132476D01*
X14447619Y-15122952D01*
X14438095Y-15103905D01*
X14438095Y-15027714D01*
X14447619Y-15008667D01*
X14466667Y-14999143D01*
X14504762Y-14999143D01*
X14523809Y-15008667D01*
X14533333Y-15027714D01*
X14533333Y-15046762D01*
X14438095Y-15065809D01*
X14609524Y-15122952D02*
X14628571Y-15132476D01*
X14666667Y-15132476D01*
X14685714Y-15122952D01*
X14695238Y-15103905D01*
X14695238Y-15094381D01*
X14685714Y-15075333D01*
X14666667Y-15065809D01*
X14638095Y-15065809D01*
X14619048Y-15056286D01*
X14609524Y-15037238D01*
X14609524Y-15027714D01*
X14619048Y-15008667D01*
X14638095Y-14999143D01*
X14666667Y-14999143D01*
X14685714Y-15008667D01*
X14761905Y-15208667D02*
X14771428Y-15199143D01*
X14790476Y-15170571D01*
X14800000Y-15151524D01*
X14809524Y-15122952D01*
X14819048Y-15075333D01*
X14819048Y-15037238D01*
X14809524Y-14989619D01*
X14800000Y-14961048D01*
X14790476Y-14942000D01*
X14771428Y-14913428D01*
X14761905Y-14903905D01*
D16*
X9940000Y-15356000D02*
X9990000Y-15306000D01*
X9940000Y-15256000D01*
X9890000Y-15306000D01*
X9940000Y-15356000D01*
D11*
X10352381Y-15396476D02*
X10238095Y-15396476D01*
X10295238Y-15396476D02*
X10295238Y-15196476D01*
X10276190Y-15225048D01*
X10257143Y-15244095D01*
X10238095Y-15253619D01*
X10438095Y-15377428D02*
X10447619Y-15386952D01*
X10438095Y-15396476D01*
X10428571Y-15386952D01*
X10438095Y-15377428D01*
X10438095Y-15396476D01*
X10571429Y-15196476D02*
X10590476Y-15196476D01*
X10609524Y-15206000D01*
X10619048Y-15215524D01*
X10628571Y-15234571D01*
X10638095Y-15272667D01*
X10638095Y-15320286D01*
X10628571Y-15358381D01*
X10619048Y-15377428D01*
X10609524Y-15386952D01*
X10590476Y-15396476D01*
X10571429Y-15396476D01*
X10552381Y-15386952D01*
X10542857Y-15377428D01*
X10533333Y-15358381D01*
X10523810Y-15320286D01*
X10523810Y-15272667D01*
X10533333Y-15234571D01*
X10542857Y-15215524D01*
X10552381Y-15206000D01*
X10571429Y-15196476D01*
X10761905Y-15196476D02*
X10780952Y-15196476D01*
X10800000Y-15206000D01*
X10809524Y-15215524D01*
X10819048Y-15234571D01*
X10828571Y-15272667D01*
X10828571Y-15320286D01*
X10819048Y-15358381D01*
X10809524Y-15377428D01*
X10800000Y-15386952D01*
X10780952Y-15396476D01*
X10761905Y-15396476D01*
X10742857Y-15386952D01*
X10733333Y-15377428D01*
X10723810Y-15358381D01*
X10714286Y-15320286D01*
X10714286Y-15272667D01*
X10723810Y-15234571D01*
X10733333Y-15215524D01*
X10742857Y-15206000D01*
X10761905Y-15196476D01*
X10952381Y-15196476D02*
X10971429Y-15196476D01*
X10990476Y-15206000D01*
X11000000Y-15215524D01*
X11009524Y-15234571D01*
X11019048Y-15272667D01*
X11019048Y-15320286D01*
X11009524Y-15358381D01*
X11000000Y-15377428D01*
X10990476Y-15386952D01*
X10971429Y-15396476D01*
X10952381Y-15396476D01*
X10933333Y-15386952D01*
X10923810Y-15377428D01*
X10914286Y-15358381D01*
X10904762Y-15320286D01*
X10904762Y-15272667D01*
X10914286Y-15234571D01*
X10923810Y-15215524D01*
X10933333Y-15206000D01*
X10952381Y-15196476D01*
X11104762Y-15396476D02*
X11104762Y-15263143D01*
X11104762Y-15282190D02*
X11114286Y-15272667D01*
X11133333Y-15263143D01*
X11161905Y-15263143D01*
X11180952Y-15272667D01*
X11190476Y-15291714D01*
X11190476Y-15396476D01*
X11190476Y-15291714D02*
X11200000Y-15272667D01*
X11219048Y-15263143D01*
X11247619Y-15263143D01*
X11266667Y-15272667D01*
X11276190Y-15291714D01*
X11276190Y-15396476D01*
X11371428Y-15396476D02*
X11371428Y-15263143D01*
X11371428Y-15282190D02*
X11380952Y-15272667D01*
X11400000Y-15263143D01*
X11428571Y-15263143D01*
X11447619Y-15272667D01*
X11457143Y-15291714D01*
X11457143Y-15396476D01*
X11457143Y-15291714D02*
X11466667Y-15272667D01*
X11485714Y-15263143D01*
X11514286Y-15263143D01*
X11533333Y-15272667D01*
X11542857Y-15291714D01*
X11542857Y-15396476D01*
X11933333Y-15186952D02*
X11761905Y-15444095D01*
X12190476Y-15196476D02*
X12209524Y-15196476D01*
X12228571Y-15206000D01*
X12238095Y-15215524D01*
X12247619Y-15234571D01*
X12257143Y-15272667D01*
X12257143Y-15320286D01*
X12247619Y-15358381D01*
X12238095Y-15377428D01*
X12228571Y-15386952D01*
X12209524Y-15396476D01*
X12190476Y-15396476D01*
X12171428Y-15386952D01*
X12161905Y-15377428D01*
X12152381Y-15358381D01*
X12142857Y-15320286D01*
X12142857Y-15272667D01*
X12152381Y-15234571D01*
X12161905Y-15215524D01*
X12171428Y-15206000D01*
X12190476Y-15196476D01*
X12342857Y-15377428D02*
X12352381Y-15386952D01*
X12342857Y-15396476D01*
X12333333Y-15386952D01*
X12342857Y-15377428D01*
X12342857Y-15396476D01*
X12476190Y-15196476D02*
X12495238Y-15196476D01*
X12514286Y-15206000D01*
X12523809Y-15215524D01*
X12533333Y-15234571D01*
X12542857Y-15272667D01*
X12542857Y-15320286D01*
X12533333Y-15358381D01*
X12523809Y-15377428D01*
X12514286Y-15386952D01*
X12495238Y-15396476D01*
X12476190Y-15396476D01*
X12457143Y-15386952D01*
X12447619Y-15377428D01*
X12438095Y-15358381D01*
X12428571Y-15320286D01*
X12428571Y-15272667D01*
X12438095Y-15234571D01*
X12447619Y-15215524D01*
X12457143Y-15206000D01*
X12476190Y-15196476D01*
X12609524Y-15196476D02*
X12733333Y-15196476D01*
X12666667Y-15272667D01*
X12695238Y-15272667D01*
X12714286Y-15282190D01*
X12723809Y-15291714D01*
X12733333Y-15310762D01*
X12733333Y-15358381D01*
X12723809Y-15377428D01*
X12714286Y-15386952D01*
X12695238Y-15396476D01*
X12638095Y-15396476D01*
X12619048Y-15386952D01*
X12609524Y-15377428D01*
X12828571Y-15396476D02*
X12866667Y-15396476D01*
X12885714Y-15386952D01*
X12895238Y-15377428D01*
X12914286Y-15348857D01*
X12923809Y-15310762D01*
X12923809Y-15234571D01*
X12914286Y-15215524D01*
X12904762Y-15206000D01*
X12885714Y-15196476D01*
X12847619Y-15196476D01*
X12828571Y-15206000D01*
X12819048Y-15215524D01*
X12809524Y-15234571D01*
X12809524Y-15282190D01*
X12819048Y-15301238D01*
X12828571Y-15310762D01*
X12847619Y-15320286D01*
X12885714Y-15320286D01*
X12904762Y-15310762D01*
X12914286Y-15301238D01*
X12923809Y-15282190D01*
X13095238Y-15263143D02*
X13095238Y-15396476D01*
X13047619Y-15186952D02*
X13000000Y-15329809D01*
X13123809Y-15329809D01*
X13190476Y-15196476D02*
X13190476Y-15234571D01*
X13266667Y-15196476D02*
X13266667Y-15234571D01*
X13561905Y-15472667D02*
X13552381Y-15463143D01*
X13533333Y-15434571D01*
X13523809Y-15415524D01*
X13514286Y-15386952D01*
X13504762Y-15339333D01*
X13504762Y-15301238D01*
X13514286Y-15253619D01*
X13523809Y-15225048D01*
X13533333Y-15206000D01*
X13552381Y-15177428D01*
X13561905Y-15167905D01*
X13628571Y-15215524D02*
X13638095Y-15206000D01*
X13657143Y-15196476D01*
X13704762Y-15196476D01*
X13723809Y-15206000D01*
X13733333Y-15215524D01*
X13742857Y-15234571D01*
X13742857Y-15253619D01*
X13733333Y-15282190D01*
X13619048Y-15396476D01*
X13742857Y-15396476D01*
X13866667Y-15196476D02*
X13885714Y-15196476D01*
X13904762Y-15206000D01*
X13914286Y-15215524D01*
X13923809Y-15234571D01*
X13933333Y-15272667D01*
X13933333Y-15320286D01*
X13923809Y-15358381D01*
X13914286Y-15377428D01*
X13904762Y-15386952D01*
X13885714Y-15396476D01*
X13866667Y-15396476D01*
X13847619Y-15386952D01*
X13838095Y-15377428D01*
X13828571Y-15358381D01*
X13819048Y-15320286D01*
X13819048Y-15272667D01*
X13828571Y-15234571D01*
X13838095Y-15215524D01*
X13847619Y-15206000D01*
X13866667Y-15196476D01*
X14171428Y-15396476D02*
X14171428Y-15196476D01*
X14257143Y-15396476D02*
X14257143Y-15291714D01*
X14247619Y-15272667D01*
X14228571Y-15263143D01*
X14200000Y-15263143D01*
X14180952Y-15272667D01*
X14171428Y-15282190D01*
X14380952Y-15396476D02*
X14361905Y-15386952D01*
X14352381Y-15377428D01*
X14342857Y-15358381D01*
X14342857Y-15301238D01*
X14352381Y-15282190D01*
X14361905Y-15272667D01*
X14380952Y-15263143D01*
X14409524Y-15263143D01*
X14428571Y-15272667D01*
X14438095Y-15282190D01*
X14447619Y-15301238D01*
X14447619Y-15358381D01*
X14438095Y-15377428D01*
X14428571Y-15386952D01*
X14409524Y-15396476D01*
X14380952Y-15396476D01*
X14561905Y-15396476D02*
X14542857Y-15386952D01*
X14533333Y-15367905D01*
X14533333Y-15196476D01*
X14714286Y-15386952D02*
X14695238Y-15396476D01*
X14657143Y-15396476D01*
X14638095Y-15386952D01*
X14628571Y-15367905D01*
X14628571Y-15291714D01*
X14638095Y-15272667D01*
X14657143Y-15263143D01*
X14695238Y-15263143D01*
X14714286Y-15272667D01*
X14723809Y-15291714D01*
X14723809Y-15310762D01*
X14628571Y-15329809D01*
X14800000Y-15386952D02*
X14819048Y-15396476D01*
X14857143Y-15396476D01*
X14876190Y-15386952D01*
X14885714Y-15367905D01*
X14885714Y-15358381D01*
X14876190Y-15339333D01*
X14857143Y-15329809D01*
X14828571Y-15329809D01*
X14809524Y-15320286D01*
X14800000Y-15301238D01*
X14800000Y-15291714D01*
X14809524Y-15272667D01*
X14828571Y-15263143D01*
X14857143Y-15263143D01*
X14876190Y-15272667D01*
X14952381Y-15472667D02*
X14961905Y-15463143D01*
X14980952Y-15434571D01*
X14990476Y-15415524D01*
X15000000Y-15386952D01*
X15009524Y-15339333D01*
X15009524Y-15301238D01*
X15000000Y-15253619D01*
X14990476Y-15225048D01*
X14980952Y-15206000D01*
X14961905Y-15177428D01*
X14952381Y-15167905D01*
D17*
X9880000Y-15515000D02*
X9990000Y-15625000D01*
X9990000Y-15515000D02*
X9880000Y-15625000D01*
X9990000Y-15570000D02*
G75*
G03*
X9990000Y-15570000I-55000J0D01*
G01*
D11*
X10352381Y-15660476D02*
X10238095Y-15660476D01*
X10295238Y-15660476D02*
X10295238Y-15460476D01*
X10276190Y-15489048D01*
X10257143Y-15508095D01*
X10238095Y-15517619D01*
X10438095Y-15641428D02*
X10447619Y-15650952D01*
X10438095Y-15660476D01*
X10428571Y-15650952D01*
X10438095Y-15641428D01*
X10438095Y-15660476D01*
X10638095Y-15660476D02*
X10523810Y-15660476D01*
X10580952Y-15660476D02*
X10580952Y-15460476D01*
X10561905Y-15489048D01*
X10542857Y-15508095D01*
X10523810Y-15517619D01*
X10761905Y-15460476D02*
X10780952Y-15460476D01*
X10800000Y-15470000D01*
X10809524Y-15479524D01*
X10819048Y-15498571D01*
X10828571Y-15536667D01*
X10828571Y-15584286D01*
X10819048Y-15622381D01*
X10809524Y-15641428D01*
X10800000Y-15650952D01*
X10780952Y-15660476D01*
X10761905Y-15660476D01*
X10742857Y-15650952D01*
X10733333Y-15641428D01*
X10723810Y-15622381D01*
X10714286Y-15584286D01*
X10714286Y-15536667D01*
X10723810Y-15498571D01*
X10733333Y-15479524D01*
X10742857Y-15470000D01*
X10761905Y-15460476D01*
X10952381Y-15460476D02*
X10971429Y-15460476D01*
X10990476Y-15470000D01*
X11000000Y-15479524D01*
X11009524Y-15498571D01*
X11019048Y-15536667D01*
X11019048Y-15584286D01*
X11009524Y-15622381D01*
X11000000Y-15641428D01*
X10990476Y-15650952D01*
X10971429Y-15660476D01*
X10952381Y-15660476D01*
X10933333Y-15650952D01*
X10923810Y-15641428D01*
X10914286Y-15622381D01*
X10904762Y-15584286D01*
X10904762Y-15536667D01*
X10914286Y-15498571D01*
X10923810Y-15479524D01*
X10933333Y-15470000D01*
X10952381Y-15460476D01*
X11104762Y-15660476D02*
X11104762Y-15527143D01*
X11104762Y-15546190D02*
X11114286Y-15536667D01*
X11133333Y-15527143D01*
X11161905Y-15527143D01*
X11180952Y-15536667D01*
X11190476Y-15555714D01*
X11190476Y-15660476D01*
X11190476Y-15555714D02*
X11200000Y-15536667D01*
X11219048Y-15527143D01*
X11247619Y-15527143D01*
X11266667Y-15536667D01*
X11276190Y-15555714D01*
X11276190Y-15660476D01*
X11371428Y-15660476D02*
X11371428Y-15527143D01*
X11371428Y-15546190D02*
X11380952Y-15536667D01*
X11400000Y-15527143D01*
X11428571Y-15527143D01*
X11447619Y-15536667D01*
X11457143Y-15555714D01*
X11457143Y-15660476D01*
X11457143Y-15555714D02*
X11466667Y-15536667D01*
X11485714Y-15527143D01*
X11514286Y-15527143D01*
X11533333Y-15536667D01*
X11542857Y-15555714D01*
X11542857Y-15660476D01*
X11933333Y-15450952D02*
X11761905Y-15708095D01*
X12190476Y-15460476D02*
X12209524Y-15460476D01*
X12228571Y-15470000D01*
X12238095Y-15479524D01*
X12247619Y-15498571D01*
X12257143Y-15536667D01*
X12257143Y-15584286D01*
X12247619Y-15622381D01*
X12238095Y-15641428D01*
X12228571Y-15650952D01*
X12209524Y-15660476D01*
X12190476Y-15660476D01*
X12171428Y-15650952D01*
X12161905Y-15641428D01*
X12152381Y-15622381D01*
X12142857Y-15584286D01*
X12142857Y-15536667D01*
X12152381Y-15498571D01*
X12161905Y-15479524D01*
X12171428Y-15470000D01*
X12190476Y-15460476D01*
X12342857Y-15641428D02*
X12352381Y-15650952D01*
X12342857Y-15660476D01*
X12333333Y-15650952D01*
X12342857Y-15641428D01*
X12342857Y-15660476D01*
X12476190Y-15460476D02*
X12495238Y-15460476D01*
X12514286Y-15470000D01*
X12523809Y-15479524D01*
X12533333Y-15498571D01*
X12542857Y-15536667D01*
X12542857Y-15584286D01*
X12533333Y-15622381D01*
X12523809Y-15641428D01*
X12514286Y-15650952D01*
X12495238Y-15660476D01*
X12476190Y-15660476D01*
X12457143Y-15650952D01*
X12447619Y-15641428D01*
X12438095Y-15622381D01*
X12428571Y-15584286D01*
X12428571Y-15536667D01*
X12438095Y-15498571D01*
X12447619Y-15479524D01*
X12457143Y-15470000D01*
X12476190Y-15460476D01*
X12714286Y-15527143D02*
X12714286Y-15660476D01*
X12666667Y-15450952D02*
X12619048Y-15593809D01*
X12742857Y-15593809D01*
X12800000Y-15460476D02*
X12923809Y-15460476D01*
X12857143Y-15536667D01*
X12885714Y-15536667D01*
X12904762Y-15546190D01*
X12914286Y-15555714D01*
X12923809Y-15574762D01*
X12923809Y-15622381D01*
X12914286Y-15641428D01*
X12904762Y-15650952D01*
X12885714Y-15660476D01*
X12828571Y-15660476D01*
X12809524Y-15650952D01*
X12800000Y-15641428D01*
X12990476Y-15460476D02*
X13114286Y-15460476D01*
X13047619Y-15536667D01*
X13076190Y-15536667D01*
X13095238Y-15546190D01*
X13104762Y-15555714D01*
X13114286Y-15574762D01*
X13114286Y-15622381D01*
X13104762Y-15641428D01*
X13095238Y-15650952D01*
X13076190Y-15660476D01*
X13019048Y-15660476D01*
X13000000Y-15650952D01*
X12990476Y-15641428D01*
X13190476Y-15460476D02*
X13190476Y-15498571D01*
X13266667Y-15460476D02*
X13266667Y-15498571D01*
X13561905Y-15736667D02*
X13552381Y-15727143D01*
X13533333Y-15698571D01*
X13523809Y-15679524D01*
X13514286Y-15650952D01*
X13504762Y-15603333D01*
X13504762Y-15565238D01*
X13514286Y-15517619D01*
X13523809Y-15489048D01*
X13533333Y-15470000D01*
X13552381Y-15441428D01*
X13561905Y-15431905D01*
X13733333Y-15460476D02*
X13638095Y-15460476D01*
X13628571Y-15555714D01*
X13638095Y-15546190D01*
X13657143Y-15536667D01*
X13704762Y-15536667D01*
X13723809Y-15546190D01*
X13733333Y-15555714D01*
X13742857Y-15574762D01*
X13742857Y-15622381D01*
X13733333Y-15641428D01*
X13723809Y-15650952D01*
X13704762Y-15660476D01*
X13657143Y-15660476D01*
X13638095Y-15650952D01*
X13628571Y-15641428D01*
X13838095Y-15660476D02*
X13876190Y-15660476D01*
X13895238Y-15650952D01*
X13904762Y-15641428D01*
X13923809Y-15612857D01*
X13933333Y-15574762D01*
X13933333Y-15498571D01*
X13923809Y-15479524D01*
X13914286Y-15470000D01*
X13895238Y-15460476D01*
X13857143Y-15460476D01*
X13838095Y-15470000D01*
X13828571Y-15479524D01*
X13819048Y-15498571D01*
X13819048Y-15546190D01*
X13828571Y-15565238D01*
X13838095Y-15574762D01*
X13857143Y-15584286D01*
X13895238Y-15584286D01*
X13914286Y-15574762D01*
X13923809Y-15565238D01*
X13933333Y-15546190D01*
X14171428Y-15660476D02*
X14171428Y-15460476D01*
X14257143Y-15660476D02*
X14257143Y-15555714D01*
X14247619Y-15536667D01*
X14228571Y-15527143D01*
X14200000Y-15527143D01*
X14180952Y-15536667D01*
X14171428Y-15546190D01*
X14380952Y-15660476D02*
X14361905Y-15650952D01*
X14352381Y-15641428D01*
X14342857Y-15622381D01*
X14342857Y-15565238D01*
X14352381Y-15546190D01*
X14361905Y-15536667D01*
X14380952Y-15527143D01*
X14409524Y-15527143D01*
X14428571Y-15536667D01*
X14438095Y-15546190D01*
X14447619Y-15565238D01*
X14447619Y-15622381D01*
X14438095Y-15641428D01*
X14428571Y-15650952D01*
X14409524Y-15660476D01*
X14380952Y-15660476D01*
X14561905Y-15660476D02*
X14542857Y-15650952D01*
X14533333Y-15631905D01*
X14533333Y-15460476D01*
X14714286Y-15650952D02*
X14695238Y-15660476D01*
X14657143Y-15660476D01*
X14638095Y-15650952D01*
X14628571Y-15631905D01*
X14628571Y-15555714D01*
X14638095Y-15536667D01*
X14657143Y-15527143D01*
X14695238Y-15527143D01*
X14714286Y-15536667D01*
X14723809Y-15555714D01*
X14723809Y-15574762D01*
X14628571Y-15593809D01*
X14800000Y-15650952D02*
X14819048Y-15660476D01*
X14857143Y-15660476D01*
X14876190Y-15650952D01*
X14885714Y-15631905D01*
X14885714Y-15622381D01*
X14876190Y-15603333D01*
X14857143Y-15593809D01*
X14828571Y-15593809D01*
X14809524Y-15584286D01*
X14800000Y-15565238D01*
X14800000Y-15555714D01*
X14809524Y-15536667D01*
X14828571Y-15527143D01*
X14857143Y-15527143D01*
X14876190Y-15536667D01*
X14952381Y-15736667D02*
X14961905Y-15727143D01*
X14980952Y-15698571D01*
X14990476Y-15679524D01*
X15000000Y-15650952D01*
X15009524Y-15603333D01*
X15009524Y-15565238D01*
X15000000Y-15517619D01*
X14990476Y-15489048D01*
X14980952Y-15470000D01*
X14961905Y-15441428D01*
X14952381Y-15431905D01*
X9790000Y-15734000D02*
X9990000Y-15934000D01*
X9990000Y-15734000D02*
X9790000Y-15934000D01*
X9890000Y-15734000D02*
X9890000Y-15934000D01*
X9790000Y-15834000D02*
X9990000Y-15834000D01*
X10333333Y-15791143D02*
X10333333Y-15924476D01*
X10285714Y-15714952D02*
X10238095Y-15857809D01*
X10361905Y-15857809D01*
X10438095Y-15905428D02*
X10447619Y-15914952D01*
X10438095Y-15924476D01*
X10428571Y-15914952D01*
X10438095Y-15905428D01*
X10438095Y-15924476D01*
X10514286Y-15724476D02*
X10638095Y-15724476D01*
X10571429Y-15800667D01*
X10600000Y-15800667D01*
X10619048Y-15810190D01*
X10628571Y-15819714D01*
X10638095Y-15838762D01*
X10638095Y-15886381D01*
X10628571Y-15905428D01*
X10619048Y-15914952D01*
X10600000Y-15924476D01*
X10542857Y-15924476D01*
X10523810Y-15914952D01*
X10514286Y-15905428D01*
X10761905Y-15724476D02*
X10780952Y-15724476D01*
X10800000Y-15734000D01*
X10809524Y-15743524D01*
X10819048Y-15762571D01*
X10828571Y-15800667D01*
X10828571Y-15848286D01*
X10819048Y-15886381D01*
X10809524Y-15905428D01*
X10800000Y-15914952D01*
X10780952Y-15924476D01*
X10761905Y-15924476D01*
X10742857Y-15914952D01*
X10733333Y-15905428D01*
X10723810Y-15886381D01*
X10714286Y-15848286D01*
X10714286Y-15800667D01*
X10723810Y-15762571D01*
X10733333Y-15743524D01*
X10742857Y-15734000D01*
X10761905Y-15724476D01*
X10952381Y-15724476D02*
X10971429Y-15724476D01*
X10990476Y-15734000D01*
X11000000Y-15743524D01*
X11009524Y-15762571D01*
X11019048Y-15800667D01*
X11019048Y-15848286D01*
X11009524Y-15886381D01*
X11000000Y-15905428D01*
X10990476Y-15914952D01*
X10971429Y-15924476D01*
X10952381Y-15924476D01*
X10933333Y-15914952D01*
X10923810Y-15905428D01*
X10914286Y-15886381D01*
X10904762Y-15848286D01*
X10904762Y-15800667D01*
X10914286Y-15762571D01*
X10923810Y-15743524D01*
X10933333Y-15734000D01*
X10952381Y-15724476D01*
X11104762Y-15924476D02*
X11104762Y-15791143D01*
X11104762Y-15810190D02*
X11114286Y-15800667D01*
X11133333Y-15791143D01*
X11161905Y-15791143D01*
X11180952Y-15800667D01*
X11190476Y-15819714D01*
X11190476Y-15924476D01*
X11190476Y-15819714D02*
X11200000Y-15800667D01*
X11219048Y-15791143D01*
X11247619Y-15791143D01*
X11266667Y-15800667D01*
X11276190Y-15819714D01*
X11276190Y-15924476D01*
X11371428Y-15924476D02*
X11371428Y-15791143D01*
X11371428Y-15810190D02*
X11380952Y-15800667D01*
X11400000Y-15791143D01*
X11428571Y-15791143D01*
X11447619Y-15800667D01*
X11457143Y-15819714D01*
X11457143Y-15924476D01*
X11457143Y-15819714D02*
X11466667Y-15800667D01*
X11485714Y-15791143D01*
X11514286Y-15791143D01*
X11533333Y-15800667D01*
X11542857Y-15819714D01*
X11542857Y-15924476D01*
X11933333Y-15714952D02*
X11761905Y-15972095D01*
X12190476Y-15724476D02*
X12209524Y-15724476D01*
X12228571Y-15734000D01*
X12238095Y-15743524D01*
X12247619Y-15762571D01*
X12257143Y-15800667D01*
X12257143Y-15848286D01*
X12247619Y-15886381D01*
X12238095Y-15905428D01*
X12228571Y-15914952D01*
X12209524Y-15924476D01*
X12190476Y-15924476D01*
X12171428Y-15914952D01*
X12161905Y-15905428D01*
X12152381Y-15886381D01*
X12142857Y-15848286D01*
X12142857Y-15800667D01*
X12152381Y-15762571D01*
X12161905Y-15743524D01*
X12171428Y-15734000D01*
X12190476Y-15724476D01*
X12342857Y-15905428D02*
X12352381Y-15914952D01*
X12342857Y-15924476D01*
X12333333Y-15914952D01*
X12342857Y-15905428D01*
X12342857Y-15924476D01*
X12542857Y-15924476D02*
X12428571Y-15924476D01*
X12485714Y-15924476D02*
X12485714Y-15724476D01*
X12466667Y-15753048D01*
X12447619Y-15772095D01*
X12428571Y-15781619D01*
X12714286Y-15724476D02*
X12676190Y-15724476D01*
X12657143Y-15734000D01*
X12647619Y-15743524D01*
X12628571Y-15772095D01*
X12619048Y-15810190D01*
X12619048Y-15886381D01*
X12628571Y-15905428D01*
X12638095Y-15914952D01*
X12657143Y-15924476D01*
X12695238Y-15924476D01*
X12714286Y-15914952D01*
X12723809Y-15905428D01*
X12733333Y-15886381D01*
X12733333Y-15838762D01*
X12723809Y-15819714D01*
X12714286Y-15810190D01*
X12695238Y-15800667D01*
X12657143Y-15800667D01*
X12638095Y-15810190D01*
X12628571Y-15819714D01*
X12619048Y-15838762D01*
X12828571Y-15924476D02*
X12866667Y-15924476D01*
X12885714Y-15914952D01*
X12895238Y-15905428D01*
X12914286Y-15876857D01*
X12923809Y-15838762D01*
X12923809Y-15762571D01*
X12914286Y-15743524D01*
X12904762Y-15734000D01*
X12885714Y-15724476D01*
X12847619Y-15724476D01*
X12828571Y-15734000D01*
X12819048Y-15743524D01*
X12809524Y-15762571D01*
X12809524Y-15810190D01*
X12819048Y-15829238D01*
X12828571Y-15838762D01*
X12847619Y-15848286D01*
X12885714Y-15848286D01*
X12904762Y-15838762D01*
X12914286Y-15829238D01*
X12923809Y-15810190D01*
X12990476Y-15724476D02*
X13114286Y-15724476D01*
X13047619Y-15800667D01*
X13076190Y-15800667D01*
X13095238Y-15810190D01*
X13104762Y-15819714D01*
X13114286Y-15838762D01*
X13114286Y-15886381D01*
X13104762Y-15905428D01*
X13095238Y-15914952D01*
X13076190Y-15924476D01*
X13019048Y-15924476D01*
X13000000Y-15914952D01*
X12990476Y-15905428D01*
X13190476Y-15724476D02*
X13190476Y-15762571D01*
X13266667Y-15724476D02*
X13266667Y-15762571D01*
X13561905Y-16000667D02*
X13552381Y-15991143D01*
X13533333Y-15962571D01*
X13523809Y-15943524D01*
X13514286Y-15914952D01*
X13504762Y-15867333D01*
X13504762Y-15829238D01*
X13514286Y-15781619D01*
X13523809Y-15753048D01*
X13533333Y-15734000D01*
X13552381Y-15705428D01*
X13561905Y-15695905D01*
X13742857Y-15924476D02*
X13628571Y-15924476D01*
X13685714Y-15924476D02*
X13685714Y-15724476D01*
X13666667Y-15753048D01*
X13647619Y-15772095D01*
X13628571Y-15781619D01*
X13980952Y-15924476D02*
X13980952Y-15724476D01*
X14066667Y-15924476D02*
X14066667Y-15819714D01*
X14057143Y-15800667D01*
X14038095Y-15791143D01*
X14009524Y-15791143D01*
X13990476Y-15800667D01*
X13980952Y-15810190D01*
X14190476Y-15924476D02*
X14171428Y-15914952D01*
X14161905Y-15905428D01*
X14152381Y-15886381D01*
X14152381Y-15829238D01*
X14161905Y-15810190D01*
X14171428Y-15800667D01*
X14190476Y-15791143D01*
X14219048Y-15791143D01*
X14238095Y-15800667D01*
X14247619Y-15810190D01*
X14257143Y-15829238D01*
X14257143Y-15886381D01*
X14247619Y-15905428D01*
X14238095Y-15914952D01*
X14219048Y-15924476D01*
X14190476Y-15924476D01*
X14371428Y-15924476D02*
X14352381Y-15914952D01*
X14342857Y-15895905D01*
X14342857Y-15724476D01*
X14523809Y-15914952D02*
X14504762Y-15924476D01*
X14466667Y-15924476D01*
X14447619Y-15914952D01*
X14438095Y-15895905D01*
X14438095Y-15819714D01*
X14447619Y-15800667D01*
X14466667Y-15791143D01*
X14504762Y-15791143D01*
X14523809Y-15800667D01*
X14533333Y-15819714D01*
X14533333Y-15838762D01*
X14438095Y-15857809D01*
X14600000Y-16000667D02*
X14609524Y-15991143D01*
X14628571Y-15962571D01*
X14638095Y-15943524D01*
X14647619Y-15914952D01*
X14657143Y-15867333D01*
X14657143Y-15829238D01*
X14647619Y-15781619D01*
X14638095Y-15753048D01*
X14628571Y-15734000D01*
X14609524Y-15705428D01*
X14600000Y-15695905D01*
M02*
