G04 #@! TF.GenerationSoftware,KiCad,Pcbnew,(6.0.1-0)*
G04 #@! TF.CreationDate,2022-08-05T18:56:23-07:00*
G04 #@! TF.ProjectId,kicad_port,6b696361-645f-4706-9f72-742e6b696361,rev?*
G04 #@! TF.SameCoordinates,Original*
G04 #@! TF.FileFunction,Soldermask,Bot*
G04 #@! TF.FilePolarity,Negative*
%FSLAX46Y46*%
G04 Gerber Fmt 4.6, Leading zero omitted, Abs format (unit mm)*
G04 Created by KiCad (PCBNEW (6.0.1-0)) date 2022-08-05 18:56:23*
%MOMM*%
%LPD*%
G01*
G04 APERTURE LIST*
%ADD10R,1.800000X1.800000*%
%ADD11C,1.800000*%
%ADD12C,1.400000*%
%ADD13O,1.400000X1.400000*%
%ADD14C,8.600000*%
%ADD15O,2.000000X1.200000*%
%ADD16R,1.700000X1.700000*%
%ADD17O,1.700000X1.700000*%
%ADD18C,6.500000*%
%ADD19O,4.750000X2.250000*%
%ADD20C,1.700000*%
G04 APERTURE END LIST*
D10*
X133700000Y-132400000D03*
D11*
X136240000Y-132400000D03*
D10*
X143700000Y-132400000D03*
D11*
X146240000Y-132400000D03*
D10*
X153700000Y-132400000D03*
D11*
X156240000Y-132400000D03*
D10*
X163700000Y-132400000D03*
D11*
X166240000Y-132400000D03*
D12*
X132500000Y-128400000D03*
D13*
X137580000Y-128400000D03*
D12*
X142500000Y-128400000D03*
D13*
X147580000Y-128400000D03*
D12*
X152400000Y-128400000D03*
D13*
X157480000Y-128400000D03*
D12*
X162300000Y-128500000D03*
D13*
X167380000Y-128500000D03*
D14*
X150000000Y-106000000D03*
D15*
X192900000Y-55000000D03*
X190900000Y-56250000D03*
X192900000Y-57500000D03*
X190900000Y-58750000D03*
X192900000Y-60000000D03*
X190900000Y-61250000D03*
X192900000Y-62500000D03*
X190900000Y-63750000D03*
X192900000Y-65000000D03*
X190900000Y-66250000D03*
X192900000Y-67500000D03*
X190900000Y-68750000D03*
X192900000Y-70000000D03*
X107000000Y-70000000D03*
X109000000Y-68750000D03*
X107000000Y-67500000D03*
X109000000Y-66250000D03*
X107000000Y-65000000D03*
X109000000Y-63750000D03*
X107000000Y-62500000D03*
X109000000Y-61250000D03*
X107000000Y-60000000D03*
X109000000Y-58750000D03*
X107000000Y-57500000D03*
X109000000Y-56250000D03*
X107000000Y-55000000D03*
X198300000Y-103000000D03*
X193300000Y-104250000D03*
X198300000Y-105500000D03*
X193300000Y-106750000D03*
X198300000Y-108000000D03*
X193300000Y-109250000D03*
X198300000Y-110500000D03*
X193300000Y-111750000D03*
X198300000Y-113000000D03*
X193300000Y-114250000D03*
X198300000Y-115500000D03*
X193300000Y-116750000D03*
X198300000Y-118000000D03*
X101800000Y-118000000D03*
X106800000Y-116750000D03*
X101800000Y-115500000D03*
X106800000Y-114250000D03*
X101800000Y-113000000D03*
X106800000Y-111750000D03*
X101800000Y-110500000D03*
X106800000Y-109250000D03*
X101800000Y-108000000D03*
X106800000Y-106750000D03*
X101800000Y-105500000D03*
X106800000Y-104250000D03*
X101800000Y-103000000D03*
D16*
X173800000Y-129000000D03*
D17*
X176340000Y-129000000D03*
X178880000Y-129000000D03*
X181420000Y-129000000D03*
X183960000Y-129000000D03*
X186500000Y-129000000D03*
X189040000Y-129000000D03*
X191580000Y-129000000D03*
X194120000Y-129000000D03*
X196660000Y-129000000D03*
D16*
X126200000Y-129000000D03*
D17*
X123660000Y-129000000D03*
X121120000Y-129000000D03*
X118580000Y-129000000D03*
X116040000Y-129000000D03*
X113500000Y-129000000D03*
X110960000Y-129000000D03*
X108420000Y-129000000D03*
X105880000Y-129000000D03*
X103340000Y-129000000D03*
D18*
X150000000Y-74500000D03*
D19*
X109700000Y-97600000D03*
X190300000Y-97600000D03*
D16*
X170630000Y-98425000D03*
D20*
X168090000Y-98425000D03*
X165550000Y-98425000D03*
X163010000Y-98425000D03*
X160470000Y-98425000D03*
X157930000Y-98425000D03*
X155390000Y-98425000D03*
X152850000Y-98425000D03*
X150310000Y-98425000D03*
X147770000Y-98425000D03*
X145230000Y-98425000D03*
X142690000Y-98425000D03*
X140150000Y-98425000D03*
X137610000Y-98425000D03*
X135070000Y-98425000D03*
X132530000Y-98425000D03*
X129990000Y-98425000D03*
X127450000Y-98425000D03*
X124910000Y-98425000D03*
X122370000Y-98425000D03*
X122370000Y-83185000D03*
X124910000Y-83185000D03*
X127450000Y-83185000D03*
X129990000Y-83185000D03*
X132530000Y-83185000D03*
X135070000Y-83185000D03*
X137610000Y-83185000D03*
X140150000Y-83185000D03*
X142690000Y-83185000D03*
X145230000Y-83185000D03*
X147770000Y-83185000D03*
X150310000Y-83185000D03*
X152850000Y-83185000D03*
X155390000Y-83185000D03*
X157930000Y-83185000D03*
X160470000Y-83185000D03*
X163010000Y-83185000D03*
X165550000Y-83185000D03*
X168090000Y-83185000D03*
X170630000Y-83185000D03*
X126181000Y-86993000D03*
X126181000Y-89533000D03*
X126181000Y-92073000D03*
X126181000Y-94613000D03*
M02*
