G04 #@! TF.GenerationSoftware,KiCad,Pcbnew,(6.0.1-0)*
G04 #@! TF.CreationDate,2022-08-05T18:56:23-07:00*
G04 #@! TF.ProjectId,kicad_port,6b696361-645f-4706-9f72-742e6b696361,rev?*
G04 #@! TF.SameCoordinates,Original*
G04 #@! TF.FileFunction,Legend,Bot*
G04 #@! TF.FilePolarity,Positive*
%FSLAX46Y46*%
G04 Gerber Fmt 4.6, Leading zero omitted, Abs format (unit mm)*
G04 Created by KiCad (PCBNEW (6.0.1-0)) date 2022-08-05 18:56:23*
%MOMM*%
%LPD*%
G01*
G04 APERTURE LIST*
%ADD10C,0.300000*%
%ADD11C,0.150000*%
%ADD12C,0.120000*%
%ADD13R,1.800000X1.800000*%
%ADD14C,1.800000*%
%ADD15C,1.400000*%
%ADD16O,1.400000X1.400000*%
%ADD17C,8.600000*%
%ADD18O,2.000000X1.200000*%
%ADD19R,1.700000X1.700000*%
%ADD20O,1.700000X1.700000*%
%ADD21C,6.500000*%
%ADD22O,4.750000X2.250000*%
%ADD23C,1.700000*%
G04 APERTURE END LIST*
D10*
X149478571Y-126778571D02*
X149478571Y-125278571D01*
X148621428Y-126778571D01*
X148621428Y-125278571D01*
X147907142Y-125278571D02*
X147907142Y-126492857D01*
X147835714Y-126635714D01*
X147764285Y-126707142D01*
X147621428Y-126778571D01*
X147335714Y-126778571D01*
X147192857Y-126707142D01*
X147121428Y-126635714D01*
X147050000Y-126492857D01*
X147050000Y-125278571D01*
X146335714Y-126778571D02*
X146335714Y-125278571D01*
X145835714Y-126350000D01*
X145335714Y-125278571D01*
X145335714Y-126778571D01*
X143907142Y-126778571D02*
X144621428Y-126778571D01*
X144621428Y-125278571D01*
X142550000Y-126635714D02*
X142621428Y-126707142D01*
X142835714Y-126778571D01*
X142978571Y-126778571D01*
X143192857Y-126707142D01*
X143335714Y-126564285D01*
X143407142Y-126421428D01*
X143478571Y-126135714D01*
X143478571Y-125921428D01*
X143407142Y-125635714D01*
X143335714Y-125492857D01*
X143192857Y-125350000D01*
X142978571Y-125278571D01*
X142835714Y-125278571D01*
X142621428Y-125350000D01*
X142550000Y-125421428D01*
X141907142Y-126778571D02*
X141907142Y-125278571D01*
X141050000Y-126778571D02*
X141692857Y-125921428D01*
X141050000Y-125278571D02*
X141907142Y-126135714D01*
X168657142Y-126578571D02*
X168657142Y-125078571D01*
X167800000Y-126578571D02*
X168442857Y-125721428D01*
X167800000Y-125078571D02*
X168657142Y-125935714D01*
X167157142Y-125792857D02*
X166657142Y-125792857D01*
X166442857Y-126578571D02*
X167157142Y-126578571D01*
X167157142Y-125078571D01*
X166442857Y-125078571D01*
X165514285Y-125864285D02*
X165514285Y-126578571D01*
X166014285Y-125078571D02*
X165514285Y-125864285D01*
X165014285Y-125078571D01*
X164514285Y-126578571D02*
X164514285Y-125078571D01*
X163942857Y-125078571D01*
X163800000Y-125150000D01*
X163728571Y-125221428D01*
X163657142Y-125364285D01*
X163657142Y-125578571D01*
X163728571Y-125721428D01*
X163800000Y-125792857D01*
X163942857Y-125864285D01*
X164514285Y-125864285D01*
X163085714Y-126150000D02*
X162371428Y-126150000D01*
X163228571Y-126578571D02*
X162728571Y-125078571D01*
X162228571Y-126578571D01*
X161728571Y-126578571D02*
X161728571Y-125078571D01*
X161371428Y-125078571D01*
X161157142Y-125150000D01*
X161014285Y-125292857D01*
X160942857Y-125435714D01*
X160871428Y-125721428D01*
X160871428Y-125935714D01*
X160942857Y-126221428D01*
X161014285Y-126364285D01*
X161157142Y-126507142D01*
X161371428Y-126578571D01*
X161728571Y-126578571D01*
X165657142Y-58656071D02*
X165657142Y-57156071D01*
X164800000Y-58656071D02*
X165442857Y-57798928D01*
X164800000Y-57156071D02*
X165657142Y-58013214D01*
X164157142Y-58656071D02*
X164157142Y-57656071D01*
X164157142Y-57156071D02*
X164228571Y-57227500D01*
X164157142Y-57298928D01*
X164085714Y-57227500D01*
X164157142Y-57156071D01*
X164157142Y-57298928D01*
X163442857Y-57656071D02*
X163442857Y-58656071D01*
X163442857Y-57798928D02*
X163371428Y-57727500D01*
X163228571Y-57656071D01*
X163014285Y-57656071D01*
X162871428Y-57727500D01*
X162800000Y-57870357D01*
X162800000Y-58656071D01*
X161514285Y-58584642D02*
X161657142Y-58656071D01*
X161942857Y-58656071D01*
X162085714Y-58584642D01*
X162157142Y-58441785D01*
X162157142Y-57870357D01*
X162085714Y-57727500D01*
X161942857Y-57656071D01*
X161657142Y-57656071D01*
X161514285Y-57727500D01*
X161442857Y-57870357D01*
X161442857Y-58013214D01*
X162157142Y-58156071D01*
X160871428Y-58584642D02*
X160728571Y-58656071D01*
X160442857Y-58656071D01*
X160300000Y-58584642D01*
X160228571Y-58441785D01*
X160228571Y-58370357D01*
X160300000Y-58227500D01*
X160442857Y-58156071D01*
X160657142Y-58156071D01*
X160800000Y-58084642D01*
X160871428Y-57941785D01*
X160871428Y-57870357D01*
X160800000Y-57727500D01*
X160657142Y-57656071D01*
X160442857Y-57656071D01*
X160300000Y-57727500D01*
X159585714Y-58656071D02*
X159585714Y-57656071D01*
X159585714Y-57156071D02*
X159657142Y-57227500D01*
X159585714Y-57298928D01*
X159514285Y-57227500D01*
X159585714Y-57156071D01*
X159585714Y-57298928D01*
X158942857Y-58584642D02*
X158800000Y-58656071D01*
X158514285Y-58656071D01*
X158371428Y-58584642D01*
X158300000Y-58441785D01*
X158300000Y-58370357D01*
X158371428Y-58227500D01*
X158514285Y-58156071D01*
X158728571Y-58156071D01*
X158871428Y-58084642D01*
X158942857Y-57941785D01*
X158942857Y-57870357D01*
X158871428Y-57727500D01*
X158728571Y-57656071D01*
X158514285Y-57656071D01*
X158371428Y-57727500D01*
X155657142Y-58513214D02*
X155728571Y-58584642D01*
X155942857Y-58656071D01*
X156085714Y-58656071D01*
X156300000Y-58584642D01*
X156442857Y-58441785D01*
X156514285Y-58298928D01*
X156585714Y-58013214D01*
X156585714Y-57798928D01*
X156514285Y-57513214D01*
X156442857Y-57370357D01*
X156300000Y-57227500D01*
X156085714Y-57156071D01*
X155942857Y-57156071D01*
X155728571Y-57227500D01*
X155657142Y-57298928D01*
X154800000Y-58656071D02*
X154942857Y-58584642D01*
X155014285Y-58513214D01*
X155085714Y-58370357D01*
X155085714Y-57941785D01*
X155014285Y-57798928D01*
X154942857Y-57727500D01*
X154800000Y-57656071D01*
X154585714Y-57656071D01*
X154442857Y-57727500D01*
X154371428Y-57798928D01*
X154300000Y-57941785D01*
X154300000Y-58370357D01*
X154371428Y-58513214D01*
X154442857Y-58584642D01*
X154585714Y-58656071D01*
X154800000Y-58656071D01*
X153657142Y-57656071D02*
X153657142Y-58656071D01*
X153657142Y-57798928D02*
X153585714Y-57727500D01*
X153442857Y-57656071D01*
X153228571Y-57656071D01*
X153085714Y-57727500D01*
X153014285Y-57870357D01*
X153014285Y-58656071D01*
X152514285Y-57656071D02*
X151942857Y-57656071D01*
X152300000Y-57156071D02*
X152300000Y-58441785D01*
X152228571Y-58584642D01*
X152085714Y-58656071D01*
X151942857Y-58656071D01*
X151228571Y-58656071D02*
X151371428Y-58584642D01*
X151442857Y-58513214D01*
X151514285Y-58370357D01*
X151514285Y-57941785D01*
X151442857Y-57798928D01*
X151371428Y-57727500D01*
X151228571Y-57656071D01*
X151014285Y-57656071D01*
X150871428Y-57727500D01*
X150800000Y-57798928D01*
X150728571Y-57941785D01*
X150728571Y-58370357D01*
X150800000Y-58513214D01*
X150871428Y-58584642D01*
X151014285Y-58656071D01*
X151228571Y-58656071D01*
X149442857Y-57656071D02*
X149442857Y-58656071D01*
X150085714Y-57656071D02*
X150085714Y-58441785D01*
X150014285Y-58584642D01*
X149871428Y-58656071D01*
X149657142Y-58656071D01*
X149514285Y-58584642D01*
X149442857Y-58513214D01*
X148728571Y-58656071D02*
X148728571Y-57656071D01*
X148728571Y-57941785D02*
X148657142Y-57798928D01*
X148585714Y-57727500D01*
X148442857Y-57656071D01*
X148300000Y-57656071D01*
X147228571Y-58584642D02*
X147371428Y-58656071D01*
X147657142Y-58656071D01*
X147800000Y-58584642D01*
X147871428Y-58441785D01*
X147871428Y-57870357D01*
X147800000Y-57727500D01*
X147657142Y-57656071D01*
X147371428Y-57656071D01*
X147228571Y-57727500D01*
X147157142Y-57870357D01*
X147157142Y-58013214D01*
X147871428Y-58156071D01*
X145871428Y-58656071D02*
X145871428Y-57156071D01*
X145871428Y-58584642D02*
X146014285Y-58656071D01*
X146300000Y-58656071D01*
X146442857Y-58584642D01*
X146514285Y-58513214D01*
X146585714Y-58370357D01*
X146585714Y-57941785D01*
X146514285Y-57798928D01*
X146442857Y-57727500D01*
X146300000Y-57656071D01*
X146014285Y-57656071D01*
X145871428Y-57727500D01*
X144085714Y-57084642D02*
X145371428Y-59013214D01*
X143657142Y-58227500D02*
X142942857Y-58227500D01*
X143800000Y-58656071D02*
X143300000Y-57156071D01*
X142800000Y-58656071D01*
X141657142Y-58656071D02*
X141657142Y-57156071D01*
X141657142Y-58584642D02*
X141800000Y-58656071D01*
X142085714Y-58656071D01*
X142228571Y-58584642D01*
X142300000Y-58513214D01*
X142371428Y-58370357D01*
X142371428Y-57941785D01*
X142300000Y-57798928D01*
X142228571Y-57727500D01*
X142085714Y-57656071D01*
X141800000Y-57656071D01*
X141657142Y-57727500D01*
X141085714Y-57656071D02*
X140728571Y-58656071D01*
X140371428Y-57656071D01*
X139157142Y-58656071D02*
X139157142Y-57870357D01*
X139228571Y-57727500D01*
X139371428Y-57656071D01*
X139657142Y-57656071D01*
X139800000Y-57727500D01*
X139157142Y-58584642D02*
X139300000Y-58656071D01*
X139657142Y-58656071D01*
X139800000Y-58584642D01*
X139871428Y-58441785D01*
X139871428Y-58298928D01*
X139800000Y-58156071D01*
X139657142Y-58084642D01*
X139300000Y-58084642D01*
X139157142Y-58013214D01*
X138442857Y-57656071D02*
X138442857Y-58656071D01*
X138442857Y-57798928D02*
X138371428Y-57727500D01*
X138228571Y-57656071D01*
X138014285Y-57656071D01*
X137871428Y-57727500D01*
X137800000Y-57870357D01*
X137800000Y-58656071D01*
X137300000Y-57656071D02*
X136728571Y-57656071D01*
X137085714Y-57156071D02*
X137085714Y-58441785D01*
X137014285Y-58584642D01*
X136871428Y-58656071D01*
X136728571Y-58656071D01*
X135585714Y-58656071D02*
X135585714Y-57870357D01*
X135657142Y-57727500D01*
X135800000Y-57656071D01*
X136085714Y-57656071D01*
X136228571Y-57727500D01*
X135585714Y-58584642D02*
X135728571Y-58656071D01*
X136085714Y-58656071D01*
X136228571Y-58584642D01*
X136300000Y-58441785D01*
X136300000Y-58298928D01*
X136228571Y-58156071D01*
X136085714Y-58084642D01*
X135728571Y-58084642D01*
X135585714Y-58013214D01*
X134228571Y-57656071D02*
X134228571Y-58870357D01*
X134300000Y-59013214D01*
X134371428Y-59084642D01*
X134514285Y-59156071D01*
X134728571Y-59156071D01*
X134871428Y-59084642D01*
X134228571Y-58584642D02*
X134371428Y-58656071D01*
X134657142Y-58656071D01*
X134800000Y-58584642D01*
X134871428Y-58513214D01*
X134942857Y-58370357D01*
X134942857Y-57941785D01*
X134871428Y-57798928D01*
X134800000Y-57727500D01*
X134657142Y-57656071D01*
X134371428Y-57656071D01*
X134228571Y-57727500D01*
X132942857Y-58584642D02*
X133085714Y-58656071D01*
X133371428Y-58656071D01*
X133514285Y-58584642D01*
X133585714Y-58441785D01*
X133585714Y-57870357D01*
X133514285Y-57727500D01*
X133371428Y-57656071D01*
X133085714Y-57656071D01*
X132942857Y-57727500D01*
X132871428Y-57870357D01*
X132871428Y-58013214D01*
X133585714Y-58156071D01*
X160585714Y-60285357D02*
X160371428Y-60356785D01*
X160300000Y-60428214D01*
X160228571Y-60571071D01*
X160228571Y-60785357D01*
X160300000Y-60928214D01*
X160371428Y-60999642D01*
X160514285Y-61071071D01*
X161085714Y-61071071D01*
X161085714Y-59571071D01*
X160585714Y-59571071D01*
X160442857Y-59642500D01*
X160371428Y-59713928D01*
X160300000Y-59856785D01*
X160300000Y-59999642D01*
X160371428Y-60142500D01*
X160442857Y-60213928D01*
X160585714Y-60285357D01*
X161085714Y-60285357D01*
X159371428Y-61071071D02*
X159514285Y-60999642D01*
X159585714Y-60856785D01*
X159585714Y-59571071D01*
X158157142Y-61071071D02*
X158157142Y-60285357D01*
X158228571Y-60142500D01*
X158371428Y-60071071D01*
X158657142Y-60071071D01*
X158800000Y-60142500D01*
X158157142Y-60999642D02*
X158300000Y-61071071D01*
X158657142Y-61071071D01*
X158800000Y-60999642D01*
X158871428Y-60856785D01*
X158871428Y-60713928D01*
X158800000Y-60571071D01*
X158657142Y-60499642D01*
X158300000Y-60499642D01*
X158157142Y-60428214D01*
X156800000Y-60999642D02*
X156942857Y-61071071D01*
X157228571Y-61071071D01*
X157371428Y-60999642D01*
X157442857Y-60928214D01*
X157514285Y-60785357D01*
X157514285Y-60356785D01*
X157442857Y-60213928D01*
X157371428Y-60142500D01*
X157228571Y-60071071D01*
X156942857Y-60071071D01*
X156800000Y-60142500D01*
X156157142Y-61071071D02*
X156157142Y-59571071D01*
X156014285Y-60499642D02*
X155585714Y-61071071D01*
X155585714Y-60071071D02*
X156157142Y-60642500D01*
X154942857Y-60071071D02*
X154942857Y-61571071D01*
X154942857Y-60142500D02*
X154800000Y-60071071D01*
X154514285Y-60071071D01*
X154371428Y-60142500D01*
X154300000Y-60213928D01*
X154228571Y-60356785D01*
X154228571Y-60785357D01*
X154300000Y-60928214D01*
X154371428Y-60999642D01*
X154514285Y-61071071D01*
X154800000Y-61071071D01*
X154942857Y-60999642D01*
X153585714Y-61071071D02*
X153585714Y-60071071D01*
X153585714Y-59571071D02*
X153657142Y-59642500D01*
X153585714Y-59713928D01*
X153514285Y-59642500D01*
X153585714Y-59571071D01*
X153585714Y-59713928D01*
X152657142Y-61071071D02*
X152800000Y-60999642D01*
X152871428Y-60856785D01*
X152871428Y-59571071D01*
X151871428Y-61071071D02*
X152014285Y-60999642D01*
X152085714Y-60856785D01*
X152085714Y-59571071D01*
X150157142Y-60499642D02*
X149014285Y-60499642D01*
X149585714Y-61071071D02*
X149585714Y-59928214D01*
X146157142Y-61213928D02*
X146300000Y-61142500D01*
X146442857Y-60999642D01*
X146657142Y-60785357D01*
X146800000Y-60713928D01*
X146942857Y-60713928D01*
X146871428Y-61071071D02*
X147014285Y-60999642D01*
X147157142Y-60856785D01*
X147228571Y-60571071D01*
X147228571Y-60071071D01*
X147157142Y-59785357D01*
X147014285Y-59642500D01*
X146871428Y-59571071D01*
X146585714Y-59571071D01*
X146442857Y-59642500D01*
X146300000Y-59785357D01*
X146228571Y-60071071D01*
X146228571Y-60571071D01*
X146300000Y-60856785D01*
X146442857Y-60999642D01*
X146585714Y-61071071D01*
X146871428Y-61071071D01*
X145585714Y-61071071D02*
X145585714Y-59571071D01*
X145085714Y-60642500D01*
X144585714Y-59571071D01*
X144585714Y-61071071D01*
X143871428Y-61071071D02*
X143871428Y-59571071D01*
X143014285Y-61071071D02*
X143657142Y-60213928D01*
X143014285Y-59571071D02*
X143871428Y-60428214D01*
X141228571Y-61071071D02*
X141228571Y-59571071D01*
X140728571Y-60642500D01*
X140228571Y-59571071D01*
X140228571Y-61071071D01*
X139300000Y-61071071D02*
X139442857Y-60999642D01*
X139514285Y-60928214D01*
X139585714Y-60785357D01*
X139585714Y-60356785D01*
X139514285Y-60213928D01*
X139442857Y-60142500D01*
X139300000Y-60071071D01*
X139085714Y-60071071D01*
X138942857Y-60142500D01*
X138871428Y-60213928D01*
X138800000Y-60356785D01*
X138800000Y-60785357D01*
X138871428Y-60928214D01*
X138942857Y-60999642D01*
X139085714Y-61071071D01*
X139300000Y-61071071D01*
X137514285Y-61071071D02*
X137514285Y-59571071D01*
X137514285Y-60999642D02*
X137657142Y-61071071D01*
X137942857Y-61071071D01*
X138085714Y-60999642D01*
X138157142Y-60928214D01*
X138228571Y-60785357D01*
X138228571Y-60356785D01*
X138157142Y-60213928D01*
X138085714Y-60142500D01*
X137942857Y-60071071D01*
X137657142Y-60071071D01*
X137514285Y-60142500D01*
X170585714Y-62700357D02*
X171085714Y-62700357D01*
X171085714Y-63486071D02*
X171085714Y-61986071D01*
X170371428Y-61986071D01*
X169585714Y-63486071D02*
X169728571Y-63414642D01*
X169800000Y-63343214D01*
X169871428Y-63200357D01*
X169871428Y-62771785D01*
X169800000Y-62628928D01*
X169728571Y-62557500D01*
X169585714Y-62486071D01*
X169371428Y-62486071D01*
X169228571Y-62557500D01*
X169157142Y-62628928D01*
X169085714Y-62771785D01*
X169085714Y-63200357D01*
X169157142Y-63343214D01*
X169228571Y-63414642D01*
X169371428Y-63486071D01*
X169585714Y-63486071D01*
X168442857Y-63486071D02*
X168442857Y-62486071D01*
X168442857Y-62771785D02*
X168371428Y-62628928D01*
X168300000Y-62557500D01*
X168157142Y-62486071D01*
X168014285Y-62486071D01*
X167514285Y-63486071D02*
X167514285Y-61986071D01*
X167371428Y-62914642D02*
X166942857Y-63486071D01*
X166942857Y-62486071D02*
X167514285Y-63057500D01*
X164942857Y-63486071D02*
X165085714Y-63414642D01*
X165157142Y-63343214D01*
X165228571Y-63200357D01*
X165228571Y-62771785D01*
X165157142Y-62628928D01*
X165085714Y-62557500D01*
X164942857Y-62486071D01*
X164728571Y-62486071D01*
X164585714Y-62557500D01*
X164514285Y-62628928D01*
X164442857Y-62771785D01*
X164442857Y-63200357D01*
X164514285Y-63343214D01*
X164585714Y-63414642D01*
X164728571Y-63486071D01*
X164942857Y-63486071D01*
X164014285Y-62486071D02*
X163442857Y-62486071D01*
X163800000Y-63486071D02*
X163800000Y-62200357D01*
X163728571Y-62057500D01*
X163585714Y-61986071D01*
X163442857Y-61986071D01*
X161157142Y-62486071D02*
X161157142Y-63700357D01*
X161228571Y-63843214D01*
X161300000Y-63914642D01*
X161442857Y-63986071D01*
X161657142Y-63986071D01*
X161800000Y-63914642D01*
X161157142Y-63414642D02*
X161300000Y-63486071D01*
X161585714Y-63486071D01*
X161728571Y-63414642D01*
X161800000Y-63343214D01*
X161871428Y-63200357D01*
X161871428Y-62771785D01*
X161800000Y-62628928D01*
X161728571Y-62557500D01*
X161585714Y-62486071D01*
X161300000Y-62486071D01*
X161157142Y-62557500D01*
X160442857Y-63486071D02*
X160442857Y-62486071D01*
X160442857Y-61986071D02*
X160514285Y-62057500D01*
X160442857Y-62128928D01*
X160371428Y-62057500D01*
X160442857Y-61986071D01*
X160442857Y-62128928D01*
X159942857Y-62486071D02*
X159371428Y-62486071D01*
X159728571Y-61986071D02*
X159728571Y-63271785D01*
X159657142Y-63414642D01*
X159514285Y-63486071D01*
X159371428Y-63486071D01*
X158657142Y-63486071D02*
X158800000Y-63414642D01*
X158871428Y-63271785D01*
X158871428Y-61986071D01*
X157442857Y-63486071D02*
X157442857Y-62700357D01*
X157514285Y-62557500D01*
X157657142Y-62486071D01*
X157942857Y-62486071D01*
X158085714Y-62557500D01*
X157442857Y-63414642D02*
X157585714Y-63486071D01*
X157942857Y-63486071D01*
X158085714Y-63414642D01*
X158157142Y-63271785D01*
X158157142Y-63128928D01*
X158085714Y-62986071D01*
X157942857Y-62914642D01*
X157585714Y-62914642D01*
X157442857Y-62843214D01*
X156728571Y-63486071D02*
X156728571Y-61986071D01*
X156728571Y-62557500D02*
X156585714Y-62486071D01*
X156300000Y-62486071D01*
X156157142Y-62557500D01*
X156085714Y-62628928D01*
X156014285Y-62771785D01*
X156014285Y-63200357D01*
X156085714Y-63343214D01*
X156157142Y-63414642D01*
X156300000Y-63486071D01*
X156585714Y-63486071D01*
X156728571Y-63414642D01*
X155371428Y-63343214D02*
X155300000Y-63414642D01*
X155371428Y-63486071D01*
X155442857Y-63414642D01*
X155371428Y-63343214D01*
X155371428Y-63486071D01*
X154014285Y-63414642D02*
X154157142Y-63486071D01*
X154442857Y-63486071D01*
X154585714Y-63414642D01*
X154657142Y-63343214D01*
X154728571Y-63200357D01*
X154728571Y-62771785D01*
X154657142Y-62628928D01*
X154585714Y-62557500D01*
X154442857Y-62486071D01*
X154157142Y-62486071D01*
X154014285Y-62557500D01*
X153157142Y-63486071D02*
X153300000Y-63414642D01*
X153371428Y-63343214D01*
X153442857Y-63200357D01*
X153442857Y-62771785D01*
X153371428Y-62628928D01*
X153300000Y-62557500D01*
X153157142Y-62486071D01*
X152942857Y-62486071D01*
X152800000Y-62557500D01*
X152728571Y-62628928D01*
X152657142Y-62771785D01*
X152657142Y-63200357D01*
X152728571Y-63343214D01*
X152800000Y-63414642D01*
X152942857Y-63486071D01*
X153157142Y-63486071D01*
X152014285Y-63486071D02*
X152014285Y-62486071D01*
X152014285Y-62628928D02*
X151942857Y-62557500D01*
X151800000Y-62486071D01*
X151585714Y-62486071D01*
X151442857Y-62557500D01*
X151371428Y-62700357D01*
X151371428Y-63486071D01*
X151371428Y-62700357D02*
X151300000Y-62557500D01*
X151157142Y-62486071D01*
X150942857Y-62486071D01*
X150800000Y-62557500D01*
X150728571Y-62700357D01*
X150728571Y-63486071D01*
X148942857Y-61914642D02*
X150228571Y-63843214D01*
X148514285Y-63414642D02*
X148300000Y-63486071D01*
X147942857Y-63486071D01*
X147800000Y-63414642D01*
X147728571Y-63343214D01*
X147657142Y-63200357D01*
X147657142Y-63057500D01*
X147728571Y-62914642D01*
X147800000Y-62843214D01*
X147942857Y-62771785D01*
X148228571Y-62700357D01*
X148371428Y-62628928D01*
X148442857Y-62557500D01*
X148514285Y-62414642D01*
X148514285Y-62271785D01*
X148442857Y-62128928D01*
X148371428Y-62057500D01*
X148228571Y-61986071D01*
X147871428Y-61986071D01*
X147657142Y-62057500D01*
X147014285Y-63486071D02*
X147014285Y-62486071D01*
X147014285Y-61986071D02*
X147085714Y-62057500D01*
X147014285Y-62128928D01*
X146942857Y-62057500D01*
X147014285Y-61986071D01*
X147014285Y-62128928D01*
X146085714Y-63486071D02*
X146228571Y-63414642D01*
X146300000Y-63271785D01*
X146300000Y-61986071D01*
X145514285Y-63486071D02*
X145514285Y-62486071D01*
X145514285Y-62628928D02*
X145442857Y-62557500D01*
X145300000Y-62486071D01*
X145085714Y-62486071D01*
X144942857Y-62557500D01*
X144871428Y-62700357D01*
X144871428Y-63486071D01*
X144871428Y-62700357D02*
X144800000Y-62557500D01*
X144657142Y-62486071D01*
X144442857Y-62486071D01*
X144300000Y-62557500D01*
X144228571Y-62700357D01*
X144228571Y-63486071D01*
X142871428Y-63486071D02*
X142871428Y-62700357D01*
X142942857Y-62557500D01*
X143085714Y-62486071D01*
X143371428Y-62486071D01*
X143514285Y-62557500D01*
X142871428Y-63414642D02*
X143014285Y-63486071D01*
X143371428Y-63486071D01*
X143514285Y-63414642D01*
X143585714Y-63271785D01*
X143585714Y-63128928D01*
X143514285Y-62986071D01*
X143371428Y-62914642D01*
X143014285Y-62914642D01*
X142871428Y-62843214D01*
X142157142Y-62486071D02*
X142157142Y-63486071D01*
X142157142Y-62628928D02*
X142085714Y-62557500D01*
X141942857Y-62486071D01*
X141728571Y-62486071D01*
X141585714Y-62557500D01*
X141514285Y-62700357D01*
X141514285Y-63486071D01*
X139728571Y-61914642D02*
X141014285Y-63843214D01*
X139228571Y-63486071D02*
X139228571Y-61986071D01*
X139085714Y-62914642D02*
X138657142Y-63486071D01*
X138657142Y-62486071D02*
X139228571Y-63057500D01*
X138014285Y-63486071D02*
X138014285Y-62486071D01*
X138014285Y-61986071D02*
X138085714Y-62057500D01*
X138014285Y-62128928D01*
X137942857Y-62057500D01*
X138014285Y-61986071D01*
X138014285Y-62128928D01*
X137300000Y-62486071D02*
X137300000Y-63486071D01*
X137300000Y-62628928D02*
X137228571Y-62557500D01*
X137085714Y-62486071D01*
X136871428Y-62486071D01*
X136728571Y-62557500D01*
X136657142Y-62700357D01*
X136657142Y-63486071D01*
X135371428Y-63414642D02*
X135514285Y-63486071D01*
X135800000Y-63486071D01*
X135942857Y-63414642D01*
X136014285Y-63271785D01*
X136014285Y-62700357D01*
X135942857Y-62557500D01*
X135800000Y-62486071D01*
X135514285Y-62486071D01*
X135371428Y-62557500D01*
X135300000Y-62700357D01*
X135300000Y-62843214D01*
X136014285Y-62986071D01*
X134728571Y-63414642D02*
X134585714Y-63486071D01*
X134300000Y-63486071D01*
X134157142Y-63414642D01*
X134085714Y-63271785D01*
X134085714Y-63200357D01*
X134157142Y-63057500D01*
X134300000Y-62986071D01*
X134514285Y-62986071D01*
X134657142Y-62914642D01*
X134728571Y-62771785D01*
X134728571Y-62700357D01*
X134657142Y-62557500D01*
X134514285Y-62486071D01*
X134300000Y-62486071D01*
X134157142Y-62557500D01*
X133442857Y-63486071D02*
X133442857Y-62486071D01*
X133442857Y-61986071D02*
X133514285Y-62057500D01*
X133442857Y-62128928D01*
X133371428Y-62057500D01*
X133442857Y-61986071D01*
X133442857Y-62128928D01*
X132800000Y-63414642D02*
X132657142Y-63486071D01*
X132371428Y-63486071D01*
X132228571Y-63414642D01*
X132157142Y-63271785D01*
X132157142Y-63200357D01*
X132228571Y-63057500D01*
X132371428Y-62986071D01*
X132585714Y-62986071D01*
X132728571Y-62914642D01*
X132800000Y-62771785D01*
X132800000Y-62700357D01*
X132728571Y-62557500D01*
X132585714Y-62486071D01*
X132371428Y-62486071D01*
X132228571Y-62557500D01*
X131514285Y-63486071D02*
X131514285Y-62486071D01*
X131514285Y-62628928D02*
X131442857Y-62557500D01*
X131300000Y-62486071D01*
X131085714Y-62486071D01*
X130942857Y-62557500D01*
X130871428Y-62700357D01*
X130871428Y-63486071D01*
X130871428Y-62700357D02*
X130800000Y-62557500D01*
X130657142Y-62486071D01*
X130442857Y-62486071D01*
X130300000Y-62557500D01*
X130228571Y-62700357D01*
X130228571Y-63486071D01*
X129300000Y-63486071D02*
X129442857Y-63414642D01*
X129514285Y-63343214D01*
X129585714Y-63200357D01*
X129585714Y-62771785D01*
X129514285Y-62628928D01*
X129442857Y-62557500D01*
X129300000Y-62486071D01*
X129085714Y-62486071D01*
X128942857Y-62557500D01*
X128871428Y-62628928D01*
X128800000Y-62771785D01*
X128800000Y-63200357D01*
X128871428Y-63343214D01*
X128942857Y-63414642D01*
X129085714Y-63486071D01*
X129300000Y-63486071D01*
X127514285Y-63486071D02*
X127514285Y-61986071D01*
X127514285Y-63414642D02*
X127657142Y-63486071D01*
X127942857Y-63486071D01*
X128085714Y-63414642D01*
X128157142Y-63343214D01*
X128228571Y-63200357D01*
X128228571Y-62771785D01*
X128157142Y-62628928D01*
X128085714Y-62557500D01*
X127942857Y-62486071D01*
X127657142Y-62486071D01*
X127514285Y-62557500D01*
X154871428Y-65901071D02*
X154871428Y-64401071D01*
X154871428Y-64972500D02*
X154728571Y-64901071D01*
X154442857Y-64901071D01*
X154300000Y-64972500D01*
X154228571Y-65043928D01*
X154157142Y-65186785D01*
X154157142Y-65615357D01*
X154228571Y-65758214D01*
X154300000Y-65829642D01*
X154442857Y-65901071D01*
X154728571Y-65901071D01*
X154871428Y-65829642D01*
X153657142Y-64901071D02*
X153300000Y-65901071D01*
X152942857Y-64901071D02*
X153300000Y-65901071D01*
X153442857Y-66258214D01*
X153514285Y-66329642D01*
X153657142Y-66401071D01*
X150585714Y-65901071D02*
X150585714Y-64401071D01*
X150585714Y-65829642D02*
X150728571Y-65901071D01*
X151014285Y-65901071D01*
X151157142Y-65829642D01*
X151228571Y-65758214D01*
X151300000Y-65615357D01*
X151300000Y-65186785D01*
X151228571Y-65043928D01*
X151157142Y-64972500D01*
X151014285Y-64901071D01*
X150728571Y-64901071D01*
X150585714Y-64972500D01*
X149228571Y-65829642D02*
X149371428Y-65901071D01*
X149657142Y-65901071D01*
X149800000Y-65829642D01*
X149871428Y-65758214D01*
X149942857Y-65615357D01*
X149942857Y-65186785D01*
X149871428Y-65043928D01*
X149800000Y-64972500D01*
X149657142Y-64901071D01*
X149371428Y-64901071D01*
X149228571Y-64972500D01*
X148585714Y-64901071D02*
X148585714Y-66401071D01*
X148585714Y-64972500D02*
X148442857Y-64901071D01*
X148157142Y-64901071D01*
X148014285Y-64972500D01*
X147942857Y-65043928D01*
X147871428Y-65186785D01*
X147871428Y-65615357D01*
X147942857Y-65758214D01*
X148014285Y-65829642D01*
X148157142Y-65901071D01*
X148442857Y-65901071D01*
X148585714Y-65829642D01*
X146657142Y-65829642D02*
X146800000Y-65901071D01*
X147085714Y-65901071D01*
X147228571Y-65829642D01*
X147300000Y-65686785D01*
X147300000Y-65115357D01*
X147228571Y-64972500D01*
X147085714Y-64901071D01*
X146800000Y-64901071D01*
X146657142Y-64972500D01*
X146585714Y-65115357D01*
X146585714Y-65258214D01*
X147300000Y-65401071D01*
X145300000Y-65901071D02*
X145300000Y-64401071D01*
X145300000Y-65829642D02*
X145442857Y-65901071D01*
X145728571Y-65901071D01*
X145871428Y-65829642D01*
X145942857Y-65758214D01*
X146014285Y-65615357D01*
X146014285Y-65186785D01*
X145942857Y-65043928D01*
X145871428Y-64972500D01*
X145728571Y-64901071D01*
X145442857Y-64901071D01*
X145300000Y-64972500D01*
X144585714Y-65901071D02*
X144585714Y-64901071D01*
X144585714Y-64401071D02*
X144657142Y-64472500D01*
X144585714Y-64543928D01*
X144514285Y-64472500D01*
X144585714Y-64401071D01*
X144585714Y-64543928D01*
X144085714Y-64901071D02*
X143514285Y-64901071D01*
X143871428Y-64401071D02*
X143871428Y-65686785D01*
X143800000Y-65829642D01*
X143657142Y-65901071D01*
X143514285Y-65901071D01*
X138650000Y-126735714D02*
X138721428Y-126807142D01*
X138935714Y-126878571D01*
X139078571Y-126878571D01*
X139292857Y-126807142D01*
X139435714Y-126664285D01*
X139507142Y-126521428D01*
X139578571Y-126235714D01*
X139578571Y-126021428D01*
X139507142Y-125735714D01*
X139435714Y-125592857D01*
X139292857Y-125450000D01*
X139078571Y-125378571D01*
X138935714Y-125378571D01*
X138721428Y-125450000D01*
X138650000Y-125521428D01*
X138078571Y-126450000D02*
X137364285Y-126450000D01*
X138221428Y-126878571D02*
X137721428Y-125378571D01*
X137221428Y-126878571D01*
X136721428Y-126878571D02*
X136721428Y-125378571D01*
X136150000Y-125378571D01*
X136007142Y-125450000D01*
X135935714Y-125521428D01*
X135864285Y-125664285D01*
X135864285Y-125878571D01*
X135935714Y-126021428D01*
X136007142Y-126092857D01*
X136150000Y-126164285D01*
X136721428Y-126164285D01*
X135292857Y-126807142D02*
X135078571Y-126878571D01*
X134721428Y-126878571D01*
X134578571Y-126807142D01*
X134507142Y-126735714D01*
X134435714Y-126592857D01*
X134435714Y-126450000D01*
X134507142Y-126307142D01*
X134578571Y-126235714D01*
X134721428Y-126164285D01*
X135007142Y-126092857D01*
X135150000Y-126021428D01*
X135221428Y-125950000D01*
X135292857Y-125807142D01*
X135292857Y-125664285D01*
X135221428Y-125521428D01*
X135150000Y-125450000D01*
X135007142Y-125378571D01*
X134650000Y-125378571D01*
X134435714Y-125450000D01*
X133078571Y-126878571D02*
X133792857Y-126878571D01*
X133792857Y-125378571D01*
X131721428Y-126735714D02*
X131792857Y-126807142D01*
X132007142Y-126878571D01*
X132150000Y-126878571D01*
X132364285Y-126807142D01*
X132507142Y-126664285D01*
X132578571Y-126521428D01*
X132650000Y-126235714D01*
X132650000Y-126021428D01*
X132578571Y-125735714D01*
X132507142Y-125592857D01*
X132364285Y-125450000D01*
X132150000Y-125378571D01*
X132007142Y-125378571D01*
X131792857Y-125450000D01*
X131721428Y-125521428D01*
X131078571Y-126878571D02*
X131078571Y-125378571D01*
X130221428Y-126878571D02*
X130864285Y-126021428D01*
X130221428Y-125378571D02*
X131078571Y-126235714D01*
X159135714Y-126607142D02*
X158921428Y-126678571D01*
X158564285Y-126678571D01*
X158421428Y-126607142D01*
X158350000Y-126535714D01*
X158278571Y-126392857D01*
X158278571Y-126250000D01*
X158350000Y-126107142D01*
X158421428Y-126035714D01*
X158564285Y-125964285D01*
X158850000Y-125892857D01*
X158992857Y-125821428D01*
X159064285Y-125750000D01*
X159135714Y-125607142D01*
X159135714Y-125464285D01*
X159064285Y-125321428D01*
X158992857Y-125250000D01*
X158850000Y-125178571D01*
X158492857Y-125178571D01*
X158278571Y-125250000D01*
X156778571Y-126535714D02*
X156850000Y-126607142D01*
X157064285Y-126678571D01*
X157207142Y-126678571D01*
X157421428Y-126607142D01*
X157564285Y-126464285D01*
X157635714Y-126321428D01*
X157707142Y-126035714D01*
X157707142Y-125821428D01*
X157635714Y-125535714D01*
X157564285Y-125392857D01*
X157421428Y-125250000D01*
X157207142Y-125178571D01*
X157064285Y-125178571D01*
X156850000Y-125250000D01*
X156778571Y-125321428D01*
X155278571Y-126678571D02*
X155778571Y-125964285D01*
X156135714Y-126678571D02*
X156135714Y-125178571D01*
X155564285Y-125178571D01*
X155421428Y-125250000D01*
X155350000Y-125321428D01*
X155278571Y-125464285D01*
X155278571Y-125678571D01*
X155350000Y-125821428D01*
X155421428Y-125892857D01*
X155564285Y-125964285D01*
X156135714Y-125964285D01*
X153921428Y-126678571D02*
X154635714Y-126678571D01*
X154635714Y-125178571D01*
X152564285Y-126535714D02*
X152635714Y-126607142D01*
X152850000Y-126678571D01*
X152992857Y-126678571D01*
X153207142Y-126607142D01*
X153350000Y-126464285D01*
X153421428Y-126321428D01*
X153492857Y-126035714D01*
X153492857Y-125821428D01*
X153421428Y-125535714D01*
X153350000Y-125392857D01*
X153207142Y-125250000D01*
X152992857Y-125178571D01*
X152850000Y-125178571D01*
X152635714Y-125250000D01*
X152564285Y-125321428D01*
X151921428Y-126678571D02*
X151921428Y-125178571D01*
X151064285Y-126678571D02*
X151707142Y-125821428D01*
X151064285Y-125178571D02*
X151921428Y-126035714D01*
D11*
X187852380Y-62166666D02*
X188566666Y-62166666D01*
X188709523Y-62119047D01*
X188804761Y-62023809D01*
X188852380Y-61880952D01*
X188852380Y-61785714D01*
X188852380Y-63166666D02*
X188852380Y-62595238D01*
X188852380Y-62880952D02*
X187852380Y-62880952D01*
X187995238Y-62785714D01*
X188090476Y-62690476D01*
X188138095Y-62595238D01*
X110952380Y-62166666D02*
X111666666Y-62166666D01*
X111809523Y-62119047D01*
X111904761Y-62023809D01*
X111952380Y-61880952D01*
X111952380Y-61785714D01*
X111047619Y-62595238D02*
X111000000Y-62642857D01*
X110952380Y-62738095D01*
X110952380Y-62976190D01*
X111000000Y-63071428D01*
X111047619Y-63119047D01*
X111142857Y-63166666D01*
X111238095Y-63166666D01*
X111380952Y-63119047D01*
X111952380Y-62547619D01*
X111952380Y-63166666D01*
X190252380Y-110166666D02*
X190966666Y-110166666D01*
X191109523Y-110119047D01*
X191204761Y-110023809D01*
X191252380Y-109880952D01*
X191252380Y-109785714D01*
X190252380Y-110547619D02*
X190252380Y-111166666D01*
X190633333Y-110833333D01*
X190633333Y-110976190D01*
X190680952Y-111071428D01*
X190728571Y-111119047D01*
X190823809Y-111166666D01*
X191061904Y-111166666D01*
X191157142Y-111119047D01*
X191204761Y-111071428D01*
X191252380Y-110976190D01*
X191252380Y-110690476D01*
X191204761Y-110595238D01*
X191157142Y-110547619D01*
X108752380Y-110166666D02*
X109466666Y-110166666D01*
X109609523Y-110119047D01*
X109704761Y-110023809D01*
X109752380Y-109880952D01*
X109752380Y-109785714D01*
X109085714Y-111071428D02*
X109752380Y-111071428D01*
X108704761Y-110833333D02*
X109419047Y-110595238D01*
X109419047Y-111214285D01*
X170922380Y-128666666D02*
X171636666Y-128666666D01*
X171779523Y-128619047D01*
X171874761Y-128523809D01*
X171922380Y-128380952D01*
X171922380Y-128285714D01*
X170922380Y-129619047D02*
X170922380Y-129142857D01*
X171398571Y-129095238D01*
X171350952Y-129142857D01*
X171303333Y-129238095D01*
X171303333Y-129476190D01*
X171350952Y-129571428D01*
X171398571Y-129619047D01*
X171493809Y-129666666D01*
X171731904Y-129666666D01*
X171827142Y-129619047D01*
X171874761Y-129571428D01*
X171922380Y-129476190D01*
X171922380Y-129238095D01*
X171874761Y-129142857D01*
X171827142Y-129095238D01*
X173352380Y-124766666D02*
X174066666Y-124766666D01*
X174209523Y-124719047D01*
X174304761Y-124623809D01*
X174352380Y-124480952D01*
X174352380Y-124385714D01*
X173352380Y-125719047D02*
X173352380Y-125242857D01*
X173828571Y-125195238D01*
X173780952Y-125242857D01*
X173733333Y-125338095D01*
X173733333Y-125576190D01*
X173780952Y-125671428D01*
X173828571Y-125719047D01*
X173923809Y-125766666D01*
X174161904Y-125766666D01*
X174257142Y-125719047D01*
X174304761Y-125671428D01*
X174352380Y-125576190D01*
X174352380Y-125338095D01*
X174304761Y-125242857D01*
X174257142Y-125195238D01*
X125852380Y-124866666D02*
X126566666Y-124866666D01*
X126709523Y-124819047D01*
X126804761Y-124723809D01*
X126852380Y-124580952D01*
X126852380Y-124485714D01*
X125852380Y-125771428D02*
X125852380Y-125580952D01*
X125900000Y-125485714D01*
X125947619Y-125438095D01*
X126090476Y-125342857D01*
X126280952Y-125295238D01*
X126661904Y-125295238D01*
X126757142Y-125342857D01*
X126804761Y-125390476D01*
X126852380Y-125485714D01*
X126852380Y-125676190D01*
X126804761Y-125771428D01*
X126757142Y-125819047D01*
X126661904Y-125866666D01*
X126423809Y-125866666D01*
X126328571Y-125819047D01*
X126280952Y-125771428D01*
X126233333Y-125676190D01*
X126233333Y-125485714D01*
X126280952Y-125390476D01*
X126328571Y-125342857D01*
X126423809Y-125295238D01*
X150709523Y-69552380D02*
X150709523Y-68552380D01*
X150376190Y-69266666D01*
X150042857Y-68552380D01*
X150042857Y-69552380D01*
X149042857Y-69552380D02*
X149614285Y-69552380D01*
X149328571Y-69552380D02*
X149328571Y-68552380D01*
X149423809Y-68695238D01*
X149519047Y-68790476D01*
X149614285Y-68838095D01*
X110509523Y-94852380D02*
X110509523Y-93852380D01*
X110176190Y-94566666D01*
X109842857Y-93852380D01*
X109842857Y-94852380D01*
X108938095Y-94185714D02*
X108938095Y-94852380D01*
X109176190Y-93804761D02*
X109414285Y-94519047D01*
X108795238Y-94519047D01*
X190909523Y-95352380D02*
X190909523Y-94352380D01*
X190576190Y-95066666D01*
X190242857Y-94352380D01*
X190242857Y-95352380D01*
X189861904Y-94352380D02*
X189242857Y-94352380D01*
X189576190Y-94733333D01*
X189433333Y-94733333D01*
X189338095Y-94780952D01*
X189290476Y-94828571D01*
X189242857Y-94923809D01*
X189242857Y-95161904D01*
X189290476Y-95257142D01*
X189338095Y-95304761D01*
X189433333Y-95352380D01*
X189719047Y-95352380D01*
X189814285Y-95304761D01*
X189861904Y-95257142D01*
X173892380Y-90043095D02*
X174701904Y-90043095D01*
X174797142Y-90090714D01*
X174844761Y-90138333D01*
X174892380Y-90233571D01*
X174892380Y-90424047D01*
X174844761Y-90519285D01*
X174797142Y-90566904D01*
X174701904Y-90614523D01*
X173892380Y-90614523D01*
X174892380Y-91614523D02*
X174892380Y-91043095D01*
X174892380Y-91328809D02*
X173892380Y-91328809D01*
X174035238Y-91233571D01*
X174130476Y-91138333D01*
X174178095Y-91043095D01*
X189400000Y-53400000D02*
X189400000Y-71600000D01*
X194400000Y-71600000D02*
X194400000Y-54400000D01*
X194400000Y-54400000D02*
X193400000Y-53400000D01*
X193400000Y-53400000D02*
X189400000Y-53400000D01*
X189400000Y-71600000D02*
X194400000Y-71600000D01*
X110500000Y-53400000D02*
X105500000Y-53400000D01*
X105500000Y-53400000D02*
X105500000Y-70600000D01*
X110500000Y-71600000D02*
X110500000Y-53400000D01*
X106500000Y-71600000D02*
X110500000Y-71600000D01*
X105500000Y-70600000D02*
X106500000Y-71600000D01*
X191800000Y-119600000D02*
X199800000Y-119600000D01*
X199800000Y-119600000D02*
X199800000Y-102400000D01*
X198800000Y-101400000D02*
X191800000Y-101400000D01*
X199800000Y-102400000D02*
X198800000Y-101400000D01*
X191800000Y-101400000D02*
X191800000Y-119600000D01*
X108300000Y-119600000D02*
X108300000Y-101400000D01*
X100300000Y-101400000D02*
X100300000Y-118600000D01*
X108300000Y-101400000D02*
X100300000Y-101400000D01*
X101300000Y-119600000D02*
X108300000Y-119600000D01*
X100300000Y-118600000D02*
X101300000Y-119600000D01*
D12*
X197990000Y-130330000D02*
X175070000Y-130330000D01*
X175070000Y-130330000D02*
X175070000Y-127670000D01*
X197990000Y-127670000D02*
X197990000Y-130330000D01*
X173800000Y-127670000D02*
X172470000Y-127670000D01*
X172470000Y-127670000D02*
X172470000Y-129000000D01*
X175070000Y-127670000D02*
X197990000Y-127670000D01*
X124930000Y-130330000D02*
X102010000Y-130330000D01*
X124930000Y-127670000D02*
X124930000Y-130330000D01*
X102010000Y-127670000D02*
X124930000Y-127670000D01*
X127530000Y-130330000D02*
X127530000Y-129000000D01*
X102010000Y-130330000D02*
X102010000Y-127670000D01*
X126200000Y-130330000D02*
X127530000Y-130330000D01*
X171900000Y-84455000D02*
X171900000Y-81915000D01*
X173075000Y-102180000D02*
X173075000Y-79430000D01*
X171900000Y-81915000D02*
X121100000Y-81915000D01*
X119925000Y-79430000D02*
X119925000Y-102180000D01*
X121100000Y-84455000D02*
X171900000Y-84455000D01*
X170630000Y-99755000D02*
X171960000Y-99755000D01*
X171960000Y-99755000D02*
X171960000Y-98425000D01*
X169360000Y-97095000D02*
X121040000Y-97095000D01*
X173075000Y-79430000D02*
X119925000Y-79430000D01*
X121040000Y-97095000D02*
X121040000Y-99755000D01*
X119925000Y-102180000D02*
X173075000Y-102180000D01*
X121040000Y-99755000D02*
X169360000Y-99755000D01*
X124851000Y-85663000D02*
X127511000Y-85663000D01*
X127511000Y-95943000D02*
X124851000Y-95943000D01*
X127511000Y-85663000D02*
X127511000Y-95943000D01*
X169360000Y-99755000D02*
X169360000Y-97095000D01*
X124851000Y-95943000D02*
X124851000Y-85663000D01*
X121100000Y-81915000D02*
X121100000Y-84455000D01*
%LPC*%
D13*
X133700000Y-132400000D03*
D14*
X136240000Y-132400000D03*
D13*
X143700000Y-132400000D03*
D14*
X146240000Y-132400000D03*
D13*
X153700000Y-132400000D03*
D14*
X156240000Y-132400000D03*
D13*
X163700000Y-132400000D03*
D14*
X166240000Y-132400000D03*
D15*
X132500000Y-128400000D03*
D16*
X137580000Y-128400000D03*
D15*
X142500000Y-128400000D03*
D16*
X147580000Y-128400000D03*
D15*
X152400000Y-128400000D03*
D16*
X157480000Y-128400000D03*
D15*
X162300000Y-128500000D03*
D16*
X167380000Y-128500000D03*
D17*
X150000000Y-106000000D03*
D18*
X192900000Y-55000000D03*
X190900000Y-56250000D03*
X192900000Y-57500000D03*
X190900000Y-58750000D03*
X192900000Y-60000000D03*
X190900000Y-61250000D03*
X192900000Y-62500000D03*
X190900000Y-63750000D03*
X192900000Y-65000000D03*
X190900000Y-66250000D03*
X192900000Y-67500000D03*
X190900000Y-68750000D03*
X192900000Y-70000000D03*
X107000000Y-70000000D03*
X109000000Y-68750000D03*
X107000000Y-67500000D03*
X109000000Y-66250000D03*
X107000000Y-65000000D03*
X109000000Y-63750000D03*
X107000000Y-62500000D03*
X109000000Y-61250000D03*
X107000000Y-60000000D03*
X109000000Y-58750000D03*
X107000000Y-57500000D03*
X109000000Y-56250000D03*
X107000000Y-55000000D03*
X198300000Y-103000000D03*
X193300000Y-104250000D03*
X198300000Y-105500000D03*
X193300000Y-106750000D03*
X198300000Y-108000000D03*
X193300000Y-109250000D03*
X198300000Y-110500000D03*
X193300000Y-111750000D03*
X198300000Y-113000000D03*
X193300000Y-114250000D03*
X198300000Y-115500000D03*
X193300000Y-116750000D03*
X198300000Y-118000000D03*
X101800000Y-118000000D03*
X106800000Y-116750000D03*
X101800000Y-115500000D03*
X106800000Y-114250000D03*
X101800000Y-113000000D03*
X106800000Y-111750000D03*
X101800000Y-110500000D03*
X106800000Y-109250000D03*
X101800000Y-108000000D03*
X106800000Y-106750000D03*
X101800000Y-105500000D03*
X106800000Y-104250000D03*
X101800000Y-103000000D03*
D19*
X173800000Y-129000000D03*
D20*
X176340000Y-129000000D03*
X178880000Y-129000000D03*
X181420000Y-129000000D03*
X183960000Y-129000000D03*
X186500000Y-129000000D03*
X189040000Y-129000000D03*
X191580000Y-129000000D03*
X194120000Y-129000000D03*
X196660000Y-129000000D03*
D19*
X126200000Y-129000000D03*
D20*
X123660000Y-129000000D03*
X121120000Y-129000000D03*
X118580000Y-129000000D03*
X116040000Y-129000000D03*
X113500000Y-129000000D03*
X110960000Y-129000000D03*
X108420000Y-129000000D03*
X105880000Y-129000000D03*
X103340000Y-129000000D03*
D21*
X150000000Y-74500000D03*
D22*
X109700000Y-97600000D03*
X190300000Y-97600000D03*
D19*
X170630000Y-98425000D03*
D23*
X168090000Y-98425000D03*
X165550000Y-98425000D03*
X163010000Y-98425000D03*
X160470000Y-98425000D03*
X157930000Y-98425000D03*
X155390000Y-98425000D03*
X152850000Y-98425000D03*
X150310000Y-98425000D03*
X147770000Y-98425000D03*
X145230000Y-98425000D03*
X142690000Y-98425000D03*
X140150000Y-98425000D03*
X137610000Y-98425000D03*
X135070000Y-98425000D03*
X132530000Y-98425000D03*
X129990000Y-98425000D03*
X127450000Y-98425000D03*
X124910000Y-98425000D03*
X122370000Y-98425000D03*
X122370000Y-83185000D03*
X124910000Y-83185000D03*
X127450000Y-83185000D03*
X129990000Y-83185000D03*
X132530000Y-83185000D03*
X135070000Y-83185000D03*
X137610000Y-83185000D03*
X140150000Y-83185000D03*
X142690000Y-83185000D03*
X145230000Y-83185000D03*
X147770000Y-83185000D03*
X150310000Y-83185000D03*
X152850000Y-83185000D03*
X155390000Y-83185000D03*
X157930000Y-83185000D03*
X160470000Y-83185000D03*
X163010000Y-83185000D03*
X165550000Y-83185000D03*
X168090000Y-83185000D03*
X170630000Y-83185000D03*
X126181000Y-86993000D03*
X126181000Y-89533000D03*
X126181000Y-92073000D03*
X126181000Y-94613000D03*
M02*
